<svg xmlns="http://www.w3.org/2000/svg" viewBox="0 0 320 320" width="320" height="320" xmlns:c2pa="http://c2pa.org/manifest"><metadata><c2pa:manifest>AAAWgmp1bWIAAAAeanVtZGMycGEAEQAQgAAAqgA4m3EDYzJwYQAAABZcanVtYgAAAEdqdW1kYzJtYQARABCAAACqADibcQN1cm46YzJwYTplMzhhZDE1My1jOTQ4LTRhNDktYjkzNi05ODNhNDMxOGJmYjIAAAADl2p1bWIAAAApanVtZGMyYXMAEQAQgAAAqgA4m3EDYzJwYS5hc3NlcnRpb25zAAAAALxqdW1iAAAARGp1bWRjYm9yABEAEIAAAKoAOJtxE2MycGEuaW5ncmVkaWVudC52MwAAAAAYYzJzaP5E3SOrMFTAQ1yWDmAICDUAAABwY2JvcqNpZGM6Zm9ybWF0bWltYWdlL3N2Zyt4bWxqaW5zdGFuY2VJRHgseG1wOmlpZDplYWJjYWM4Zi04N2U1LTQ1ZWMtOGU2OC1hNjIyZDQ5ZmI5MmNscmVsYXRpb25zaGlwaHBhcmVudE9mAAAB4mp1bWIAAABBanVtZGNib3IAEQAQgAAAqgA4m3ETYzJwYS5hY3Rpb25zLnYyAAAAABhjMnNo3wZQ5DJK5xPsR37ZXKsAAAAAAZljYm9yomdhY3Rpb25zgqJmYWN0aW9ua2MycGEub3BlbmVkanBhcmFtZXRlcnOha2luZ3JlZGllbnRzgaJjdXJseC1zZWxmI2p1bWJmPWMycGEuYXNzZXJ0aW9ucy9jMnBhLmluZ3JlZGllbnQudjNkaGFzaFggNxlFtu6k2P92vW2jus8cy9gIyta+nc1EFNTTjhYDlQSkZmFjdGlvbngdY29tLmFudGhyb3BpYy5jbGF1ZGUucHJvdmlkZWRqcGFyYW1ldGVyc6F4H2NvbS5hbnRocm9waWMub3JpZ2luLWNvbmZpZGVuY2VndW5rbm93bmtkZXNjcmlwdGlvbnhmQ2xhdWRlIHByb3ZpZGVkIHRoaXMgZmlsZSBhdCB0aGUgcmVxdWVzdCBvZiBhIHVzZXIgYW5kIG1heSBoYXZlIGNyZWF0ZWQgb3IgbW9kaWZpZWQgdGhlIGZpbGUgY29udGVudHMubXNvZnR3YXJlQWdlbnShZG5hbWVmQ2xhdWRlcmFsbEFjdGlvbnNJbmNsdWRlZPUAAADIanVtYgAAAEBqdW1kY2JvcgARABCAAACqADibcRNjMnBhLmhhc2guZGF0YQAAAAAYYzJzaA50UYqwTHAgCgKxXtU43b4AAACAY2JvcqVjYWxnZnNoYTI1NmNwYWRNAAAAAAAAAAAAAAAAAGRoYXNoWCCNcAMYFlSjY7zXVUJKo//J4Y/r1BXYi6b7cLq/K5gJM2RuYW1lbmp1bWJmIG1hbmlmZXN0amV4Y2x1c2lvbnOBomVzdGFydBiWZmxlbmd0aBkeBAAAAj5qdW1iAAAAJ2p1bWRjMmNsABEAEIAAAKoAOJtxA2MycGEuY2xhaW0udjIAAAACD2Nib3KlY2FsZ2ZzaGEyNTZpc2lnbmF0dXJleE1zZWxmI2p1bWJmPS9jMnBhL3VybjpjMnBhOmUzOGFkMTUzLWM5NDgtNGE0OS1iOTM2LTk4M2E0MzE4YmZiMi9jMnBhLnNpZ25hdHVyZWppbnN0YW5jZUlEeCx4bXA6aWlkOjEzMWUwNzBiLWUwMzQtNDIwZi1iZjIyLTFiYTMzYTRhYmUyYXJjcmVhdGVkX2Fzc2VydGlvbnODomN1cmx4LXNlbGYjanVtYmY9YzJwYS5hc3NlcnRpb25zL2MycGEuaW5ncmVkaWVudC52M2RoYXNoWCA3GUW27qTY/3a9baO6zxzL2AjK1r6dzUQU1NOOFgOVBKJjdXJseCpzZWxmI2p1bWJmPWMycGEuYXNzZXJ0aW9ucy9jMnBhLmFjdGlvbnMudjJkaGFzaFggztKdua/P+OY7cnixNdsLvW1ClCpAG7F4Ytv1zxKbHIWiY3VybHgpc2VsZiNqdW1iZj1jMnBhLmFzc2VydGlvbnMvYzJwYS5oYXNoLmRhdGFkaGFzaFggRAv0bdflc+a0pVV/yTs+7plmDSdZU1IYcAx2w/WdFsx0Y2xhaW1fZ2VuZXJhdG9yX2luZm+jZG5hbWVvQW50aHJvcGljIEZpbGVzZ3ZlcnNpb25lMS4wLjBrc3BlY1ZlcnNpb25lMi40LjAAABA4anVtYgAAAChqdW1kYzJjcwARABCAAACqADibcQNjMnBhLnNpZ25hdHVyZQAAABAIY2JvctKEWQISogEmGCFZAgowggIGMIIBjaADAgECAhRA5aAK7sI50L64g/oGQgU9Z1UTADAKBggqhkjOPQQDAzBJMRcwFQYDVQQKEw5BbnRocm9waWMsIFBCQzEuMCwGA1UEAxMlQW50aHJvcGljIENvbnRlbnQgQ3JlZGVudGlhbHMgUm9vdCBDQTAeFw0yNjA4MDcxODQzNTZaFw0yODA4MDYxOTQzNTZaMEQxFzAVBgNVBAoTDkFudGhyb3BpYywgUEJDMSkwJwYDVQQDEyBBbnRocm9waWMgQ2xhdWRlIENvbnRlbnQgU2lnbmluZzBZMBMGByqGSM49AgEGCCqGSM49AwEHA0IABJh6CmvLUBgFFNU0vUKlOVtE6djd17L5SuwX0LemFisBM3dkd/3cyjxFA3Qo5S46fX0/ihY0VZ7mfb9KF703t5OjWDBWMA4GA1UdDwEB/wQEAwIHgDAVBgNVHSUEDjAMBgorBgEEAYPoXgIBMAwGA1UdEwEB/wQCMAAwHwYDVR0jBBgwFoAUzlHiBIFOZFsj+OPEz5o+nMHXXMIwCgYIKoZIzj0EAwMDZwAwZAIwMXMdFJ4BetLLVY7ORuE9noqbbAZOZn/aArXyTwFAZfKrPzxF2vPoJNf1+UCdg1XGAjBwX1zd9WGqYkqmL5SFqw1QySjr1zJfpJM9+1rdDwSPLMOPOjKuiXjoU/pUUeG9RwmhY3BhZFkNngAAAAAAAAAAAAAAAAAAAAAAAAAAAAAAAAAAAAAAAAAAAAAAAAAAAAAAAAAAAAAAAAAAAAAAAAAAAAAAAAAAAAAAAAAAAAAAAAAAAAAAAAAAAAAAAAAAAAAAAAAAAAAAAAAAAAAAAAAAAAAAAAAAAAAAAAAAAAAAAAAAAAAAAAAAAAAAAAAAAAAAAAAAAAAAAAAAAAAAAAAAAAAAAAAAAAAAAAAAAAAAAAAAAAAAAAAAAAAAAAAAAAAAAAAAAAAAAAAAAAAAAAAAAAAAAAAAAAAAAAAAAAAAAAAAAAAAAAAAAAAAAAAAAAAAAAAAAAAAAAAAAAAAAAAAAAAAAAAAAAAAAAAAAAAAAAAAAAAAAAAAAAAAAAAAAAAAAAAAAAAAAAAAAAAAAAAAAAAAAAAAAAAAAAAAAAAAAAAAAAAAAAAAAAAAAAAAAAAAAAAAAAAAAAAAAAAAAAAAAAAAAAAAAAAAAAAAAAAAAAAAAAAAAAAAAAAAAAAAAAAAAAAAAAAAAAAAAAAAAAAAAAAAAAAAAAAAAAAAAAAAAAAAAAAAAAAAAAAAAAAAAAAAAAAAAAAAAAAAAAAAAAAAAAAAAAAAAAAAAAAAAAAAAAAAAAAAAAAAAAAAAAAAAAAAAAAAAAAAAAAAAAAAAAAAAAAAAAAAAAAAAAAAAAAAAAAAAAAAAAAAAAAAAAAAAAAAAAAAAAAAAAAAAAAAAAAAAAAAAAAAAAAAAAAAAAAAAAAAAAAAAAAAAAAAAAAAAAAAAAAAAAAAAAAAAAAAAAAAAAAAAAAAAAAAAAAAAAAAAAAAAAAAAAAAAAAAAAAAAAAAAAAAAAAAAAAAAAAAAAAAAAAAAAAAAAAAAAAAAAAAAAAAAAAAAAAAAAAAAAAAAAAAAAAAAAAAAAAAAAAAAAAAAAAAAAAAAAAAAAAAAAAAAAAAAAAAAAAAAAAAAAAAAAAAAAAAAAAAAAAAAAAAAAAAAAAAAAAAAAAAAAAAAAAAAAAAAAAAAAAAAAAAAAAAAAAAAAAAAAAAAAAAAAAAAAAAAAAAAAAAAAAAAAAAAAAAAAAAAAAAAAAAAAAAAAAAAAAAAAAAAAAAAAAAAAAAAAAAAAAAAAAAAAAAAAAAAAAAAAAAAAAAAAAAAAAAAAAAAAAAAAAAAAAAAAAAAAAAAAAAAAAAAAAAAAAAAAAAAAAAAAAAAAAAAAAAAAAAAAAAAAAAAAAAAAAAAAAAAAAAAAAAAAAAAAAAAAAAAAAAAAAAAAAAAAAAAAAAAAAAAAAAAAAAAAAAAAAAAAAAAAAAAAAAAAAAAAAAAAAAAAAAAAAAAAAAAAAAAAAAAAAAAAAAAAAAAAAAAAAAAAAAAAAAAAAAAAAAAAAAAAAAAAAAAAAAAAAAAAAAAAAAAAAAAAAAAAAAAAAAAAAAAAAAAAAAAAAAAAAAAAAAAAAAAAAAAAAAAAAAAAAAAAAAAAAAAAAAAAAAAAAAAAAAAAAAAAAAAAAAAAAAAAAAAAAAAAAAAAAAAAAAAAAAAAAAAAAAAAAAAAAAAAAAAAAAAAAAAAAAAAAAAAAAAAAAAAAAAAAAAAAAAAAAAAAAAAAAAAAAAAAAAAAAAAAAAAAAAAAAAAAAAAAAAAAAAAAAAAAAAAAAAAAAAAAAAAAAAAAAAAAAAAAAAAAAAAAAAAAAAAAAAAAAAAAAAAAAAAAAAAAAAAAAAAAAAAAAAAAAAAAAAAAAAAAAAAAAAAAAAAAAAAAAAAAAAAAAAAAAAAAAAAAAAAAAAAAAAAAAAAAAAAAAAAAAAAAAAAAAAAAAAAAAAAAAAAAAAAAAAAAAAAAAAAAAAAAAAAAAAAAAAAAAAAAAAAAAAAAAAAAAAAAAAAAAAAAAAAAAAAAAAAAAAAAAAAAAAAAAAAAAAAAAAAAAAAAAAAAAAAAAAAAAAAAAAAAAAAAAAAAAAAAAAAAAAAAAAAAAAAAAAAAAAAAAAAAAAAAAAAAAAAAAAAAAAAAAAAAAAAAAAAAAAAAAAAAAAAAAAAAAAAAAAAAAAAAAAAAAAAAAAAAAAAAAAAAAAAAAAAAAAAAAAAAAAAAAAAAAAAAAAAAAAAAAAAAAAAAAAAAAAAAAAAAAAAAAAAAAAAAAAAAAAAAAAAAAAAAAAAAAAAAAAAAAAAAAAAAAAAAAAAAAAAAAAAAAAAAAAAAAAAAAAAAAAAAAAAAAAAAAAAAAAAAAAAAAAAAAAAAAAAAAAAAAAAAAAAAAAAAAAAAAAAAAAAAAAAAAAAAAAAAAAAAAAAAAAAAAAAAAAAAAAAAAAAAAAAAAAAAAAAAAAAAAAAAAAAAAAAAAAAAAAAAAAAAAAAAAAAAAAAAAAAAAAAAAAAAAAAAAAAAAAAAAAAAAAAAAAAAAAAAAAAAAAAAAAAAAAAAAAAAAAAAAAAAAAAAAAAAAAAAAAAAAAAAAAAAAAAAAAAAAAAAAAAAAAAAAAAAAAAAAAAAAAAAAAAAAAAAAAAAAAAAAAAAAAAAAAAAAAAAAAAAAAAAAAAAAAAAAAAAAAAAAAAAAAAAAAAAAAAAAAAAAAAAAAAAAAAAAAAAAAAAAAAAAAAAAAAAAAAAAAAAAAAAAAAAAAAAAAAAAAAAAAAAAAAAAAAAAAAAAAAAAAAAAAAAAAAAAAAAAAAAAAAAAAAAAAAAAAAAAAAAAAAAAAAAAAAAAAAAAAAAAAAAAAAAAAAAAAAAAAAAAAAAAAAAAAAAAAAAAAAAAAAAAAAAAAAAAAAAAAAAAAAAAAAAAAAAAAAAAAAAAAAAAAAAAAAAAAAAAAAAAAAAAAAAAAAAAAAAAAAAAAAAAAAAAAAAAAAAAAAAAAAAAAAAAAAAAAAAAAAAAAAAAAAAAAAAAAAAAAAAAAAAAAAAAAAAAAAAAAAAAAAAAAAAAAAAAAAAAAAAAAAAAAAAAAAAAAAAAAAAAAAAAAAAAAAAAAAAAAAAAAAAAAAAAAAAAAAAAAAAAAAAAAAAAAAAAAAAAAAAAAAAAAAAAAAAAAAAAAAAAAAAAAAAAAAAAAAAAAAAAAAAAAAAAAAAAAAAAAAAAAAAAAAAAAAAAAAAAAAAAAAAAAAAAAAAAAAAAAAAAAAAAAAAAAAAAAAAAAAAAAAAAAAAAAAAAAAAAAAAAAAAAAAAAAAAAAAAAAAAAAAAAAAAAAAAAAAAAAAAAAAAAAAAAAAAAAAAAAAAAAAAAAAAAAAAAAAAAAAAAAAAAAAAAAAAAAAAAAAAAAAAAAAAAAAAAAAAAAAAAAAAAAAAAAAAAAAAAAAAAAAAAAAAAAAAAAAAAAAAAAAAAAAAAAAAAAAAAAAAAAAAAAAAAAAAAAAAAAAAAAAAAAAAAAAAAAAAAAAAAAAAAAAAAAAAAAAAAAAAAAAAAAAAAAAAAAAAAAAAAAAAAAAAAAAAAAAAAAAAAAAAAAAAAAAAAAAAAAAAAAAAAAAAAAAAAAAAAAAAAAAAAAAAAAAAAAAAAAAAAAAAAAAAAAAAAAAAAAAAAAAAAAAAAAAAAAAAAAAAAAAAAAAAAAAAAAAAAAAAAAAAAAAAAAAAAAAAAAAAAAAAAAAAAAAAAAAAAAAAAAAAAAAAAAAAAAAAAAAAAAAAAAAAAAAAAAAAAAAAAAAAAAAAAAAAAAAAAAAAAAAAAAAAAAAAAAAAAAAAAAAAAAAAAAAAAAAAAAAAAAAAAAAAAAAAAAAAAAAAAAAAAAAAAAAAAAAAAAAAAAAAAAAAAAAAAAAAAAAAAAAAAAAAAAAAAAAAAAAAAAAAAAAAAAAAAAAAAAAAAAAAAAAAAAAAAAAAAAAAAAAAAAAAAAAAAAAAAAAAAAAAAAAAAAAAAAAAAAAAAAAAAAAAAAAAAAAAAAAAAAAAAAAAAAAAAAAAAAAAAAAAAAAAAAAAAAAAAAAAAAAAAAAAAAAAAAAAAAAAAAAAAAAAAAAAAAAAAAAAAAAAAAAAAAAAAAAAAAAAAAAAAAAAAAAAAAAAAAAAAAAAAAAAAAAAAAAAAAAAAAAAAAAAAAAAAAAAAAAAAAAAAAAAAAAAAAAAAAAAAAAAAAAAAAAAAAAAAAAAAAAAAAAAAAAAAAAAAAAAAAAAAAAAAAAAAAAAAAAAAAAAAAAAAAAAAAAAAAAAAAAAAAAAAAAAAAAAAAAAAAAAAAAAAAAAAAAAAAAAAAAAAAAAAAAAAAAAAAAAAAAAAAAAAAAAAAAAAAAAAAAAAAAAAAAAAAAAAAAAAAAAAAAAAAAAAAAAAAAAAAAAAAAAAAAAAAAAAAAAAAAAAAAAAAAAAAAAAAAAAAAAAAAAAAAAAAAAAAAAAAAAAAAAAAAAAAAAAAAAAAAAAAAAAAAAAAAAAAAAAAAAAAAAAAAAAAAAAAAAAAAAAAAAAAAAAAAAAAAAAAAAAAAAAAAAAAAAAAAAAAAAAAAAAAAAAAAAAAAAAAAAAAAAAAAAAAAAAAAAAAAAAAAAAAAAAAAAAAAAAAAAAAAAAAAAAAAAAAAAAAAAAAAAAAAAAAAAAAAAAAAAAAAAAAAAAAAAAAAAAAAAAAAAAAAAAAAAAAAAAAAAAAAAAAAAAAAAAAAAAAAAAAAAAAAAAAAAAAAAAAAAAAAAAAAAAAAAAAAAAAAAAAAAAAAAAAAAAAAAAAAAAAAAAAAAAAAAAAAAAAAAAAAAAAAAAAAAAAAAAAAAAAAAAAAAAAPZYQENS9Bon9yyOgyDy1aWTA733L5dpVTP6PwHMwJFdb9ZJI5Wjc/N18bgIO06rqvLBjdkne+m6c7NuP3wTefEl6QQ=</c2pa:manifest></metadata><defs><style>@import url("https://fonts.googleapis.com/css2?family=M+PLUS+Rounded+1c:wght@800&amp;display=swap");</style><filter id="olk7" x="-5%" y="-5%" width="110%" height="110%"><feMorphology in="SourceAlpha" operator="dilate" radius="7" result="d"/><feFlood flood-color="#fff"/><feComposite in2="d" operator="in" result="w"/><feMerge><feMergeNode in="w"/><feMergeNode in="SourceGraphic"/></feMerge></filter></defs><g filter="url(#olk7)"><rect x="50" y="50" width="10" height="16" rx="2" fill="#e2504a" stroke="#3d2619" stroke-width="2.5" transform="rotate(-20 50 50)"/><rect x="84" y="22" width="10" height="16" rx="2" fill="#43bfae" stroke="#3d2619" stroke-width="2.5" transform="rotate(20 84 22)"/><rect x="240" y="28" width="10" height="16" rx="2" fill="#f3c24f" stroke="#3d2619" stroke-width="2.5" transform="rotate(30 240 28)"/><rect x="276" y="70" width="10" height="16" rx="2" fill="#e2504a" stroke="#3d2619" stroke-width="2.5" transform="rotate(-15 276 70)"/><rect x="40" y="150" width="10" height="16" rx="2" fill="#f3c24f" stroke="#3d2619" stroke-width="2.5" transform="rotate(40 40 150)"/><rect x="282" y="150" width="10" height="16" rx="2" fill="#43bfae" stroke="#3d2619" stroke-width="2.5" transform="rotate(-30 282 150)"/><g transform="translate(160,112) rotate(0) scale(0.68)"><path d="M-42,108 L-44,136" fill="none" stroke="#3d2619" stroke-width="24" stroke-linecap="round" stroke-linejoin="round"/><path d="M-42,108 L-44,136" fill="none" stroke="#c98952" stroke-width="14" stroke-linecap="round" stroke-linejoin="round"/><ellipse cx="-44" cy="140" rx="10" ry="6.5" fill="#4a3a33" stroke="#3d2619" stroke-width="4" transform="rotate(0 -44 140)"/><path d="M42,108 L44,136" fill="none" stroke="#3d2619" stroke-width="24" stroke-linecap="round" stroke-linejoin="round"/><path d="M42,108 L44,136" fill="none" stroke="#c98952" stroke-width="14" stroke-linecap="round" stroke-linejoin="round"/><ellipse cx="44" cy="140" rx="10" ry="6.5" fill="#4a3a33" stroke="#3d2619" stroke-width="4" transform="rotate(0 44 140)"/><path d="M-22,112 L-22,144" fill="none" stroke="#3d2619" stroke-width="24" stroke-linecap="round" stroke-linejoin="round"/><path d="M-22,112 L-22,144" fill="none" stroke="#c98952" stroke-width="14" stroke-linecap="round" stroke-linejoin="round"/><ellipse cx="-22" cy="148" rx="10" ry="6.5" fill="#4a3a33" stroke="#3d2619" stroke-width="4" transform="rotate(0 -22 148)"/><path d="M22,112 L22,144" fill="none" stroke="#3d2619" stroke-width="24" stroke-linecap="round" stroke-linejoin="round"/><path d="M22,112 L22,144" fill="none" stroke="#c98952" stroke-width="14" stroke-linecap="round" stroke-linejoin="round"/><ellipse cx="22" cy="148" rx="10" ry="6.5" fill="#4a3a33" stroke="#3d2619" stroke-width="4" transform="rotate(0 22 148)"/><path d="M46,84 C74,78 86,96 80,120" fill="none" stroke="#3d2619" stroke-width="26" stroke-linecap="round" stroke-linejoin="round"/><path d="M46,84 C74,78 86,96 80,120" fill="none" stroke="#5c3522" stroke-width="16" stroke-linecap="round" stroke-linejoin="round"/><ellipse cx="0" cy="100" rx="56" ry="34" fill="#c98952" stroke="#3d2619" stroke-width="5.5"/><g transform="rotate(0 0 60)"><g transform="rotate(0 40 -84)"><path d="M36,-84 C58,-100 62,-128 54,-144 C36,-132 22,-110 22,-94Z" fill="#c98952" stroke="#3d2619" stroke-width="5" stroke-linejoin="round"/><path d="M38,-92 C50,-104 52,-120 50,-130 C40,-120 32,-108 30,-98Z" fill="#f2b3a3"/></g><g transform="rotate(0 -40 -84)"><path d="M-36,-84 C-58,-100 -62,-128 -54,-144 C-36,-132 -22,-110 -22,-94Z" fill="#c98952" stroke="#3d2619" stroke-width="5" stroke-linejoin="round"/><path d="M-38,-92 C-50,-104 -52,-120 -50,-130 C-40,-120 -32,-108 -30,-98Z" fill="#f2b3a3"/></g><path d="M0,-98 C46,-98 72,-68 72,-30 C72,4 56,20 52,38 C48,62 28,74 0,74 C-28,74 -48,62 -52,38 C-56,20 -72,4 -72,-30 C-72,-68 -46,-98 0,-98Z" fill="#c98952" stroke="#3d2619" stroke-width="5.5" stroke-linejoin="round"/><ellipse cx="0" cy="44" rx="44" ry="30" fill="#f4dcc1"/><path d="M0,-64 l7,10 l-7,10 l-7,-10z" fill="#ffffff"/><path d="M-24,-92 C-20,-112 -4,-118 6,-110 C12,-124 32,-118 30,-100 C36,-92 28,-78 17,-80 C10,-70 -8,-72 -10,-80 C-24,-78 -30,-88 -24,-92Z" fill="#5c3522" stroke="#3d2619" stroke-width="4.5" stroke-linejoin="round"/><ellipse cx="-38" cy="-66" rx="12" ry="6" fill="#ffffff" opacity=".35" transform="rotate(-30 -38 -66)"/><ellipse cx="-50" cy="10" rx="12" ry="7" fill="#f39a8e" opacity=".9"/><ellipse cx="50" cy="10" rx="12" ry="7" fill="#f39a8e" opacity=".9"/><path d="M-46,-16 q10,-12 20,0" fill="none" stroke="#3d2619" stroke-width="5" stroke-linecap="round"/><path d="M26,-16 q10,-12 20,0" fill="none" stroke="#3d2619" stroke-width="5" stroke-linecap="round"/><ellipse cx="-15" cy="40" rx="4.5" ry="6.5" fill="#3d2619"/><ellipse cx="15" cy="40" rx="4.5" ry="6.5" fill="#3d2619"/><path d="M-12,56 q12,16 24,0 z" fill="#3d2619" stroke="#3d2619" stroke-width="3" stroke-linejoin="round"/><path d="M-6,62 q6,-4 12,0 q-6,5 -12,0z" fill="#e2504a"/></g><g transform="translate(-53.9,75.0)"><circle cx="7.0" cy="0.0" r="6.5" fill="#e2504a" stroke="#3d2619" stroke-width="2.5"/><circle cx="2.2" cy="6.7" r="6.5" fill="#e2504a" stroke="#3d2619" stroke-width="2.5"/><circle cx="-5.7" cy="4.1" r="6.5" fill="#e2504a" stroke="#3d2619" stroke-width="2.5"/><circle cx="-5.7" cy="-4.1" r="6.5" fill="#e2504a" stroke="#3d2619" stroke-width="2.5"/><circle cx="2.2" cy="-6.7" r="6.5" fill="#e2504a" stroke="#3d2619" stroke-width="2.5"/><circle r="4" fill="#ffffff" stroke="#3d2619" stroke-width="2"/></g><g transform="translate(-45.3,82.8)"><circle cx="7.0" cy="0.0" r="6.5" fill="#f3c24f" stroke="#3d2619" stroke-width="2.5"/><circle cx="2.2" cy="6.7" r="6.5" fill="#f3c24f" stroke="#3d2619" stroke-width="2.5"/><circle cx="-5.7" cy="4.1" r="6.5" fill="#f3c24f" stroke="#3d2619" stroke-width="2.5"/><circle cx="-5.7" cy="-4.1" r="6.5" fill="#f3c24f" stroke="#3d2619" stroke-width="2.5"/><circle cx="2.2" cy="-6.7" r="6.5" fill="#f3c24f" stroke="#3d2619" stroke-width="2.5"/><circle r="4" fill="#ffffff" stroke="#3d2619" stroke-width="2"/></g><g transform="translate(-32.6,88.8)"><circle cx="7.0" cy="0.0" r="6.5" fill="#e2504a" stroke="#3d2619" stroke-width="2.5"/><circle cx="2.2" cy="6.7" r="6.5" fill="#e2504a" stroke="#3d2619" stroke-width="2.5"/><circle cx="-5.7" cy="4.1" r="6.5" fill="#e2504a" stroke="#3d2619" stroke-width="2.5"/><circle cx="-5.7" cy="-4.1" r="6.5" fill="#e2504a" stroke="#3d2619" stroke-width="2.5"/><circle cx="2.2" cy="-6.7" r="6.5" fill="#e2504a" stroke="#3d2619" stroke-width="2.5"/><circle r="4" fill="#ffffff" stroke="#3d2619" stroke-width="2"/></g><g transform="translate(-17.1,92.7)"><circle cx="7.0" cy="0.0" r="6.5" fill="#f3c24f" stroke="#3d2619" stroke-width="2.5"/><circle cx="2.2" cy="6.7" r="6.5" fill="#f3c24f" stroke="#3d2619" stroke-width="2.5"/><circle cx="-5.7" cy="4.1" r="6.5" fill="#f3c24f" stroke="#3d2619" stroke-width="2.5"/><circle cx="-5.7" cy="-4.1" r="6.5" fill="#f3c24f" stroke="#3d2619" stroke-width="2.5"/><circle cx="2.2" cy="-6.7" r="6.5" fill="#f3c24f" stroke="#3d2619" stroke-width="2.5"/><circle r="4" fill="#ffffff" stroke="#3d2619" stroke-width="2"/></g><g transform="translate(-0.0,94.0)"><circle cx="7.0" cy="0.0" r="6.5" fill="#e2504a" stroke="#3d2619" stroke-width="2.5"/><circle cx="2.2" cy="6.7" r="6.5" fill="#e2504a" stroke="#3d2619" stroke-width="2.5"/><circle cx="-5.7" cy="4.1" r="6.5" fill="#e2504a" stroke="#3d2619" stroke-width="2.5"/><circle cx="-5.7" cy="-4.1" r="6.5" fill="#e2504a" stroke="#3d2619" stroke-width="2.5"/><circle cx="2.2" cy="-6.7" r="6.5" fill="#e2504a" stroke="#3d2619" stroke-width="2.5"/><circle r="4" fill="#ffffff" stroke="#3d2619" stroke-width="2"/></g><g transform="translate(17.1,92.7)"><circle cx="7.0" cy="0.0" r="6.5" fill="#f3c24f" stroke="#3d2619" stroke-width="2.5"/><circle cx="2.2" cy="6.7" r="6.5" fill="#f3c24f" stroke="#3d2619" stroke-width="2.5"/><circle cx="-5.7" cy="4.1" r="6.5" fill="#f3c24f" stroke="#3d2619" stroke-width="2.5"/><circle cx="-5.7" cy="-4.1" r="6.5" fill="#f3c24f" stroke="#3d2619" stroke-width="2.5"/><circle cx="2.2" cy="-6.7" r="6.5" fill="#f3c24f" stroke="#3d2619" stroke-width="2.5"/><circle r="4" fill="#ffffff" stroke="#3d2619" stroke-width="2"/></g><g transform="translate(32.6,88.8)"><circle cx="7.0" cy="0.0" r="6.5" fill="#e2504a" stroke="#3d2619" stroke-width="2.5"/><circle cx="2.2" cy="6.7" r="6.5" fill="#e2504a" stroke="#3d2619" stroke-width="2.5"/><circle cx="-5.7" cy="4.1" r="6.5" fill="#e2504a" stroke="#3d2619" stroke-width="2.5"/><circle cx="-5.7" cy="-4.1" r="6.5" fill="#e2504a" stroke="#3d2619" stroke-width="2.5"/><circle cx="2.2" cy="-6.7" r="6.5" fill="#e2504a" stroke="#3d2619" stroke-width="2.5"/><circle r="4" fill="#ffffff" stroke="#3d2619" stroke-width="2"/></g><g transform="translate(45.3,82.8)"><circle cx="7.0" cy="0.0" r="6.5" fill="#f3c24f" stroke="#3d2619" stroke-width="2.5"/><circle cx="2.2" cy="6.7" r="6.5" fill="#f3c24f" stroke="#3d2619" stroke-width="2.5"/><circle cx="-5.7" cy="4.1" r="6.5" fill="#f3c24f" stroke="#3d2619" stroke-width="2.5"/><circle cx="-5.7" cy="-4.1" r="6.5" fill="#f3c24f" stroke="#3d2619" stroke-width="2.5"/><circle cx="2.2" cy="-6.7" r="6.5" fill="#f3c24f" stroke="#3d2619" stroke-width="2.5"/><circle r="4" fill="#ffffff" stroke="#3d2619" stroke-width="2"/></g><g transform="translate(53.9,75.0)"><circle cx="7.0" cy="0.0" r="6.5" fill="#e2504a" stroke="#3d2619" stroke-width="2.5"/><circle cx="2.2" cy="6.7" r="6.5" fill="#e2504a" stroke="#3d2619" stroke-width="2.5"/><circle cx="-5.7" cy="4.1" r="6.5" fill="#e2504a" stroke="#3d2619" stroke-width="2.5"/><circle cx="-5.7" cy="-4.1" r="6.5" fill="#e2504a" stroke="#3d2619" stroke-width="2.5"/><circle cx="2.2" cy="-6.7" r="6.5" fill="#e2504a" stroke="#3d2619" stroke-width="2.5"/><circle r="4" fill="#ffffff" stroke="#3d2619" stroke-width="2"/></g></g><text x="160" y="250" text-anchor="middle" font-family="'M PLUS Rounded 1c', sans-serif" font-weight="800" font-size="40" fill="#3d2619">おめでとう</text><text x="160" y="292" text-anchor="middle" font-family="'M PLUS Rounded 1c', sans-serif" font-weight="800" font-size="40" fill="#3d2619">ございます</text></g></svg>