<svg xmlns="http://www.w3.org/2000/svg" viewBox="0 0 320 320" width="320" height="320" xmlns:c2pa="http://c2pa.org/manifest"><metadata><c2pa:manifest>AAAWgmp1bWIAAAAeanVtZGMycGEAEQAQgAAAqgA4m3EDYzJwYQAAABZcanVtYgAAAEdqdW1kYzJtYQARABCAAACqADibcQN1cm46YzJwYTo5NTliYzBkNC0xNThjLTRiNDEtYjFhYi03NWRhMDEyMjQxMmYAAAADl2p1bWIAAAApanVtZGMyYXMAEQAQgAAAqgA4m3EDYzJwYS5hc3NlcnRpb25zAAAAALxqdW1iAAAARGp1bWRjYm9yABEAEIAAAKoAOJtxE2MycGEuaW5ncmVkaWVudC52MwAAAAAYYzJzaBhX93T5uN0hLg/4R6x4Ai0AAABwY2JvcqNpZGM6Zm9ybWF0bWltYWdlL3N2Zyt4bWxqaW5zdGFuY2VJRHgseG1wOmlpZDo5YWY3NmRmYS1mZDgyLTRlMTItYmZmYy0wNDJjZGJhZDU1NTFscmVsYXRpb25zaGlwaHBhcmVudE9mAAAB4mp1bWIAAABBanVtZGNib3IAEQAQgAAAqgA4m3ETYzJwYS5hY3Rpb25zLnYyAAAAABhjMnNo8OC9S3bGUwb7oYSgBa9uJAAAAZljYm9yomdhY3Rpb25zgqJmYWN0aW9ua2MycGEub3BlbmVkanBhcmFtZXRlcnOha2luZ3JlZGllbnRzgaJjdXJseC1zZWxmI2p1bWJmPWMycGEuYXNzZXJ0aW9ucy9jMnBhLmluZ3JlZGllbnQudjNkaGFzaFggtwvo9b4RK20WpqZl/T63ztkMpca5OnxRCKkz1XHwNfakZmFjdGlvbngdY29tLmFudGhyb3BpYy5jbGF1ZGUucHJvdmlkZWRqcGFyYW1ldGVyc6F4H2NvbS5hbnRocm9waWMub3JpZ2luLWNvbmZpZGVuY2VndW5rbm93bmtkZXNjcmlwdGlvbnhmQ2xhdWRlIHByb3ZpZGVkIHRoaXMgZmlsZSBhdCB0aGUgcmVxdWVzdCBvZiBhIHVzZXIgYW5kIG1heSBoYXZlIGNyZWF0ZWQgb3IgbW9kaWZpZWQgdGhlIGZpbGUgY29udGVudHMubXNvZnR3YXJlQWdlbnShZG5hbWVmQ2xhdWRlcmFsbEFjdGlvbnNJbmNsdWRlZPUAAADIanVtYgAAAEBqdW1kY2JvcgARABCAAACqADibcRNjMnBhLmhhc2guZGF0YQAAAAAYYzJzaM2yJA6Yhbz3CAWfd49Si/gAAACAY2JvcqVjYWxnZnNoYTI1NmNwYWRNAAAAAAAAAAAAAAAAAGRoYXNoWCA4dDos4y8OmKTD9YOJJmKSg1DJyccTkLtgsZo63H+ID2RuYW1lbmp1bWJmIG1hbmlmZXN0amV4Y2x1c2lvbnOBomVzdGFydBiWZmxlbmd0aBkeBAAAAj5qdW1iAAAAJ2p1bWRjMmNsABEAEIAAAKoAOJtxA2MycGEuY2xhaW0udjIAAAACD2Nib3KlY2FsZ2ZzaGEyNTZpc2lnbmF0dXJleE1zZWxmI2p1bWJmPS9jMnBhL3VybjpjMnBhOjk1OWJjMGQ0LTE1OGMtNGI0MS1iMWFiLTc1ZGEwMTIyNDEyZi9jMnBhLnNpZ25hdHVyZWppbnN0YW5jZUlEeCx4bXA6aWlkOjRmOTRlMTA0LTYxMTktNDg2Yi1hNTMwLThlZThjNzRjZWRmN3JjcmVhdGVkX2Fzc2VydGlvbnODomN1cmx4LXNlbGYjanVtYmY9YzJwYS5hc3NlcnRpb25zL2MycGEuaW5ncmVkaWVudC52M2RoYXNoWCC3C+j1vhErbRampmX9PrfO2Qylxrk6fFEIqTPVcfA19qJjdXJseCpzZWxmI2p1bWJmPWMycGEuYXNzZXJ0aW9ucy9jMnBhLmFjdGlvbnMudjJkaGFzaFggVUDKyUanBNZ+LIfNn5W/N32c7lf1at/RHpv7L3Qdda2iY3VybHgpc2VsZiNqdW1iZj1jMnBhLmFzc2VydGlvbnMvYzJwYS5oYXNoLmRhdGFkaGFzaFggd5kaZ/wzFfalV1O4E1EXuYVcuGsMlUbaJoo3cFsmBVt0Y2xhaW1fZ2VuZXJhdG9yX2luZm+jZG5hbWVvQW50aHJvcGljIEZpbGVzZ3ZlcnNpb25lMS4wLjBrc3BlY1ZlcnNpb25lMi40LjAAABA4anVtYgAAAChqdW1kYzJjcwARABCAAACqADibcQNjMnBhLnNpZ25hdHVyZQAAABAIY2JvctKEWQISogEmGCFZAgowggIGMIIBjaADAgECAhRA5aAK7sI50L64g/oGQgU9Z1UTADAKBggqhkjOPQQDAzBJMRcwFQYDVQQKEw5BbnRocm9waWMsIFBCQzEuMCwGA1UEAxMlQW50aHJvcGljIENvbnRlbnQgQ3JlZGVudGlhbHMgUm9vdCBDQTAeFw0yNjA4MDcxODQzNTZaFw0yODA4MDYxOTQzNTZaMEQxFzAVBgNVBAoTDkFudGhyb3BpYywgUEJDMSkwJwYDVQQDEyBBbnRocm9waWMgQ2xhdWRlIENvbnRlbnQgU2lnbmluZzBZMBMGByqGSM49AgEGCCqGSM49AwEHA0IABJh6CmvLUBgFFNU0vUKlOVtE6djd17L5SuwX0LemFisBM3dkd/3cyjxFA3Qo5S46fX0/ihY0VZ7mfb9KF703t5OjWDBWMA4GA1UdDwEB/wQEAwIHgDAVBgNVHSUEDjAMBgorBgEEAYPoXgIBMAwGA1UdEwEB/wQCMAAwHwYDVR0jBBgwFoAUzlHiBIFOZFsj+OPEz5o+nMHXXMIwCgYIKoZIzj0EAwMDZwAwZAIwMXMdFJ4BetLLVY7ORuE9noqbbAZOZn/aArXyTwFAZfKrPzxF2vPoJNf1+UCdg1XGAjBwX1zd9WGqYkqmL5SFqw1QySjr1zJfpJM9+1rdDwSPLMOPOjKuiXjoU/pUUeG9RwmhY3BhZFkNngAAAAAAAAAAAAAAAAAAAAAAAAAAAAAAAAAAAAAAAAAAAAAAAAAAAAAAAAAAAAAAAAAAAAAAAAAAAAAAAAAAAAAAAAAAAAAAAAAAAAAAAAAAAAAAAAAAAAAAAAAAAAAAAAAAAAAAAAAAAAAAAAAAAAAAAAAAAAAAAAAAAAAAAAAAAAAAAAAAAAAAAAAAAAAAAAAAAAAAAAAAAAAAAAAAAAAAAAAAAAAAAAAAAAAAAAAAAAAAAAAAAAAAAAAAAAAAAAAAAAAAAAAAAAAAAAAAAAAAAAAAAAAAAAAAAAAAAAAAAAAAAAAAAAAAAAAAAAAAAAAAAAAAAAAAAAAAAAAAAAAAAAAAAAAAAAAAAAAAAAAAAAAAAAAAAAAAAAAAAAAAAAAAAAAAAAAAAAAAAAAAAAAAAAAAAAAAAAAAAAAAAAAAAAAAAAAAAAAAAAAAAAAAAAAAAAAAAAAAAAAAAAAAAAAAAAAAAAAAAAAAAAAAAAAAAAAAAAAAAAAAAAAAAAAAAAAAAAAAAAAAAAAAAAAAAAAAAAAAAAAAAAAAAAAAAAAAAAAAAAAAAAAAAAAAAAAAAAAAAAAAAAAAAAAAAAAAAAAAAAAAAAAAAAAAAAAAAAAAAAAAAAAAAAAAAAAAAAAAAAAAAAAAAAAAAAAAAAAAAAAAAAAAAAAAAAAAAAAAAAAAAAAAAAAAAAAAAAAAAAAAAAAAAAAAAAAAAAAAAAAAAAAAAAAAAAAAAAAAAAAAAAAAAAAAAAAAAAAAAAAAAAAAAAAAAAAAAAAAAAAAAAAAAAAAAAAAAAAAAAAAAAAAAAAAAAAAAAAAAAAAAAAAAAAAAAAAAAAAAAAAAAAAAAAAAAAAAAAAAAAAAAAAAAAAAAAAAAAAAAAAAAAAAAAAAAAAAAAAAAAAAAAAAAAAAAAAAAAAAAAAAAAAAAAAAAAAAAAAAAAAAAAAAAAAAAAAAAAAAAAAAAAAAAAAAAAAAAAAAAAAAAAAAAAAAAAAAAAAAAAAAAAAAAAAAAAAAAAAAAAAAAAAAAAAAAAAAAAAAAAAAAAAAAAAAAAAAAAAAAAAAAAAAAAAAAAAAAAAAAAAAAAAAAAAAAAAAAAAAAAAAAAAAAAAAAAAAAAAAAAAAAAAAAAAAAAAAAAAAAAAAAAAAAAAAAAAAAAAAAAAAAAAAAAAAAAAAAAAAAAAAAAAAAAAAAAAAAAAAAAAAAAAAAAAAAAAAAAAAAAAAAAAAAAAAAAAAAAAAAAAAAAAAAAAAAAAAAAAAAAAAAAAAAAAAAAAAAAAAAAAAAAAAAAAAAAAAAAAAAAAAAAAAAAAAAAAAAAAAAAAAAAAAAAAAAAAAAAAAAAAAAAAAAAAAAAAAAAAAAAAAAAAAAAAAAAAAAAAAAAAAAAAAAAAAAAAAAAAAAAAAAAAAAAAAAAAAAAAAAAAAAAAAAAAAAAAAAAAAAAAAAAAAAAAAAAAAAAAAAAAAAAAAAAAAAAAAAAAAAAAAAAAAAAAAAAAAAAAAAAAAAAAAAAAAAAAAAAAAAAAAAAAAAAAAAAAAAAAAAAAAAAAAAAAAAAAAAAAAAAAAAAAAAAAAAAAAAAAAAAAAAAAAAAAAAAAAAAAAAAAAAAAAAAAAAAAAAAAAAAAAAAAAAAAAAAAAAAAAAAAAAAAAAAAAAAAAAAAAAAAAAAAAAAAAAAAAAAAAAAAAAAAAAAAAAAAAAAAAAAAAAAAAAAAAAAAAAAAAAAAAAAAAAAAAAAAAAAAAAAAAAAAAAAAAAAAAAAAAAAAAAAAAAAAAAAAAAAAAAAAAAAAAAAAAAAAAAAAAAAAAAAAAAAAAAAAAAAAAAAAAAAAAAAAAAAAAAAAAAAAAAAAAAAAAAAAAAAAAAAAAAAAAAAAAAAAAAAAAAAAAAAAAAAAAAAAAAAAAAAAAAAAAAAAAAAAAAAAAAAAAAAAAAAAAAAAAAAAAAAAAAAAAAAAAAAAAAAAAAAAAAAAAAAAAAAAAAAAAAAAAAAAAAAAAAAAAAAAAAAAAAAAAAAAAAAAAAAAAAAAAAAAAAAAAAAAAAAAAAAAAAAAAAAAAAAAAAAAAAAAAAAAAAAAAAAAAAAAAAAAAAAAAAAAAAAAAAAAAAAAAAAAAAAAAAAAAAAAAAAAAAAAAAAAAAAAAAAAAAAAAAAAAAAAAAAAAAAAAAAAAAAAAAAAAAAAAAAAAAAAAAAAAAAAAAAAAAAAAAAAAAAAAAAAAAAAAAAAAAAAAAAAAAAAAAAAAAAAAAAAAAAAAAAAAAAAAAAAAAAAAAAAAAAAAAAAAAAAAAAAAAAAAAAAAAAAAAAAAAAAAAAAAAAAAAAAAAAAAAAAAAAAAAAAAAAAAAAAAAAAAAAAAAAAAAAAAAAAAAAAAAAAAAAAAAAAAAAAAAAAAAAAAAAAAAAAAAAAAAAAAAAAAAAAAAAAAAAAAAAAAAAAAAAAAAAAAAAAAAAAAAAAAAAAAAAAAAAAAAAAAAAAAAAAAAAAAAAAAAAAAAAAAAAAAAAAAAAAAAAAAAAAAAAAAAAAAAAAAAAAAAAAAAAAAAAAAAAAAAAAAAAAAAAAAAAAAAAAAAAAAAAAAAAAAAAAAAAAAAAAAAAAAAAAAAAAAAAAAAAAAAAAAAAAAAAAAAAAAAAAAAAAAAAAAAAAAAAAAAAAAAAAAAAAAAAAAAAAAAAAAAAAAAAAAAAAAAAAAAAAAAAAAAAAAAAAAAAAAAAAAAAAAAAAAAAAAAAAAAAAAAAAAAAAAAAAAAAAAAAAAAAAAAAAAAAAAAAAAAAAAAAAAAAAAAAAAAAAAAAAAAAAAAAAAAAAAAAAAAAAAAAAAAAAAAAAAAAAAAAAAAAAAAAAAAAAAAAAAAAAAAAAAAAAAAAAAAAAAAAAAAAAAAAAAAAAAAAAAAAAAAAAAAAAAAAAAAAAAAAAAAAAAAAAAAAAAAAAAAAAAAAAAAAAAAAAAAAAAAAAAAAAAAAAAAAAAAAAAAAAAAAAAAAAAAAAAAAAAAAAAAAAAAAAAAAAAAAAAAAAAAAAAAAAAAAAAAAAAAAAAAAAAAAAAAAAAAAAAAAAAAAAAAAAAAAAAAAAAAAAAAAAAAAAAAAAAAAAAAAAAAAAAAAAAAAAAAAAAAAAAAAAAAAAAAAAAAAAAAAAAAAAAAAAAAAAAAAAAAAAAAAAAAAAAAAAAAAAAAAAAAAAAAAAAAAAAAAAAAAAAAAAAAAAAAAAAAAAAAAAAAAAAAAAAAAAAAAAAAAAAAAAAAAAAAAAAAAAAAAAAAAAAAAAAAAAAAAAAAAAAAAAAAAAAAAAAAAAAAAAAAAAAAAAAAAAAAAAAAAAAAAAAAAAAAAAAAAAAAAAAAAAAAAAAAAAAAAAAAAAAAAAAAAAAAAAAAAAAAAAAAAAAAAAAAAAAAAAAAAAAAAAAAAAAAAAAAAAAAAAAAAAAAAAAAAAAAAAAAAAAAAAAAAAAAAAAAAAAAAAAAAAAAAAAAAAAAAAAAAAAAAAAAAAAAAAAAAAAAAAAAAAAAAAAAAAAAAAAAAAAAAAAAAAAAAAAAAAAAAAAAAAAAAAAAAAAAAAAAAAAAAAAAAAAAAAAAAAAAAAAAAAAAAAAAAAAAAAAAAAAAAAAAAAAAAAAAAAAAAAAAAAAAAAAAAAAAAAAAAAAAAAAAAAAAAAAAAAAAAAAAAAAAAAAAAAAAAAAAAAAAAAAAAAAAAAAAAAAAAAAAAAAAAAAAAAAAAAAAAAAAAAAAAAAAAAAAAAAAAAAAAAAAAAAAAAAAAAAAAAAAAAAAAAAAAAAAAAAAAAAAAAAAAAAAAAAAAAAAAAAAAAAAAAAAAAAAAAAAAAAAAAAAAAAAAAAAAAAAAAAAAAAAAAAAAAAAAAAAAAAAAAAAAAAAAAAAAAAAAAAAAAAAAAAAAAAAAAAAAAAAAAAAAAAAAAAAAAAAAAAAAAAAAAAAAAAAAAAAAAAAAAAAAAAAAAAAAAAAAAAAAAAAAAAAAAAAAAAAAAAAAAAAAAAAAAAAAAAAAAAAAAAAAAAAAAAAAAAAAAAAAAAAAAAAAAAAAAAAAAAAAAAAAAAAAAAAAAAAAAAAAAAAAAAAAAAAAAAAAAAAAAAAAAAAAAAAAAAAAAAAAAAAAAAAAAAAAAAAAAAAAAAAAAAAAAAAAAAAAAAAAAAAAAAAAAAAAAAAAAAAAAAAAAAAAAAAAAAAAAAAAAAAAAAAAAAAAAAAAAAAAAAAAAAAAAAAAAAAAAAAAAAAAAAAAAAAAAAAAAAAAAAAAAAAAAAAAAAAAAAAAAAAAAAAAAAAAAAAAAAAAAAAAAAAAAAAAAAAAAAAAAAAAAAAAAAAAAAAAAAAAAAAAAAAAAAAAAAAAAAAAAAAAAAAAAAAAAAAAAAAAAAAAAAAAAAAAAAAAAAAAAAAAAAAAAAAAAAAAAAAAAAAAAAAAAAAAAAAAAAAAAAAAAAAAAAAAAAAAAAAAAAAAAAAAAAAAAAAAAAAAAAAAAAAAAAAAAAAAAAAAAAAAAAAAAAAAAAAAAAAAAAAAAAAAAAAAAAAAAAAAAAAAAAAAAAAAAAAAAAAAAAAAAAAAAAAAAAAAAAAAAAAAAAAAAAAAAAAAAAAAAAAAAAAAAAAAAAAAAAAAAAAAAAAAAAAAAAAAAAAAAAAAAAAAAAAAAAAAAAAAAAAAAAAAAAAAAAAAAAAAAAPZYQFhbXZF8AFv0sfzrn4RN57h9xusJQEVIfVlXFrY7Js0cTph4BbC2EqIwUCF9rIZpmVTDYIvH2xKMfdbr13GYPwo=</c2pa:manifest></metadata><defs><style>@import url("https://fonts.googleapis.com/css2?family=M+PLUS+Rounded+1c:wght@800&amp;display=swap");</style><filter id="oll3" x="-5%" y="-5%" width="110%" height="110%"><feMorphology in="SourceAlpha" operator="dilate" radius="7" result="d"/><feFlood flood-color="#fff"/><feComposite in2="d" operator="in" result="w"/><feMerge><feMergeNode in="w"/><feMergeNode in="SourceGraphic"/></feMerge></filter></defs><g filter="url(#oll3)"><g transform="translate(62,176) rotate(-8) scale(0.62,0.62) translate(-110,-212)"><g transform="translate(0,0) scale(1)"><path d="M52,206 C26,196 26,230 56,224" fill="none" stroke="#3a2c55" stroke-width="17" stroke-linecap="round" stroke-linejoin="round"/><path d="M52,206 C26,196 26,230 56,224" fill="none" stroke="#f3c24f" stroke-width="7" stroke-linecap="round" stroke-linejoin="round"/><path d="M82,234 h36 l8,12 h-52z" fill="#d99b2b" stroke="#3a2c55" stroke-width="5" stroke-linejoin="round"/><path d="M50,210 C52,192 78,186 100,186 C124,186 142,194 150,204 L182,190 C190,186 194,192 188,196 L158,222 C146,234 122,238 100,238 C74,238 50,228 50,210Z" fill="#f3c24f" stroke="#3a2c55" stroke-width="5.5" stroke-linejoin="round"/><path d="M64,214 C80,226 118,228 140,216" fill="none" stroke="#d99b2b" stroke-width="5" stroke-linecap="round"/><ellipse cx="78" cy="200" rx="10" ry="4.5" fill="#ffffff" opacity=".6" transform="rotate(-12 78 200)"/><ellipse cx="100" cy="187" rx="28" ry="7" fill="#d99b2b" stroke="#3a2c55" stroke-width="4.5"/><path d="M84,186 C86,172 114,172 116,186" fill="#f3c24f" stroke="#3a2c55" stroke-width="4.5"/><circle cx="100" cy="170" r="6" fill="#f3c24f" stroke="#3a2c55" stroke-width="4"/></g></g><path d="M109.1,158.8 L115.2,160.8 L120.8,162.8 L126.0,164.9 L130.8,166.8 L135.3,168.6 L139.5,170.2 L143.6,171.6 L147.5,172.8 L151.3,173.8 L154.9,174.6 L158.5,175.3 L162.0,176.0 L165.4,176.7 L168.7,177.3 L171.9,178.0 L175.2,178.7 L178.6,179.4 L182.2,180.1 L186.1,180.7 L190.3,181.1 L194.8,181.1 L199.7,180.8 L204.7,179.9 L210.0,178.6 L215.5,176.6 L221.2,173.9 L227.0,170.6 L233.0,166.6 L239.2,161.9 L245.7,156.6 L252.5,150.6 L259.7,144.1 L238.7,119.9 L231.4,125.9 L224.7,131.2 L218.6,136.1 L213.2,140.5 L208.3,144.6 L204.0,148.3 L200.2,151.8 L196.8,155.0 L193.9,158.0 L191.2,160.8 L188.7,163.2 L186.2,165.4 L183.8,167.2 L181.2,168.6 L178.6,169.6 L175.9,170.1 L173.1,170.1 L170.3,169.7 L167.5,168.8 L164.6,167.6 L161.6,166.2 L158.5,164.6 L155.2,162.9 L151.6,161.2 L147.6,159.7 L143.4,158.3 L138.7,157.1 L133.7,156.2 L128.2,155.5 L122.4,155.1 L116.2,154.9 L109.7,154.8Z" fill="#efe7ff" stroke="#3a2c55" stroke-width="5" stroke-linejoin="round"/><path d="M149.5,167.0 L153.2,168.3 L156.7,169.6 L160.1,170.8 L163.3,171.8 L166.4,172.7 L169.5,173.5 L172.5,174.0 L175.5,174.4 L178.6,174.5 L181.7,174.4 L184.9,174.0 L188.3,173.2 L191.8,172.2 L195.4,170.8 L199.3,169.0 L203.4,166.8 L207.9,164.2" fill="none" stroke="#d9c9fb" stroke-width="5" stroke-linecap="round"/><circle cx="154.9" cy="174.6" r="7" fill="#efe7ff" stroke="#3a2c55" stroke-width="3.5"/><circle cx="190.3" cy="181.1" r="5" fill="#efe7ff" stroke="#3a2c55" stroke-width="3.5"/><g transform="translate(232,72) rotate(-16) scale(0.8)"><path d="M-8,40 h16 v10 h-16z" fill="#ffe3d0" stroke="#3a2c55" stroke-width="4"/><path d="M-30,56 C-24,46 24,46 30,56 L24,84 L-24,84Z" fill="#b79cf0" stroke="#3a2c55" stroke-width="5" stroke-linejoin="round"/><path d="M-20,50 C-8,58 8,58 20,50" fill="none" stroke="#f3c24f" stroke-width="5" stroke-linecap="round"/><circle cx="0" cy="68" r="5" fill="#f3c24f" stroke="#3a2c55" stroke-width="3"/><path d="M20,-60 C48,-80 84,-66 86,-30 C88,0 74,22 84,50 C62,44 52,22 52,0 C52,-22 42,-40 22,-44Z" fill="#4d3a7d" stroke="#3a2c55" stroke-width="5" stroke-linejoin="round"/><path d="M44,-60 C66,-54 72,-30 68,-4 M58,-40 C62,-24 60,0 66,24" fill="none" stroke="#7a64b3" stroke-width="3.5" stroke-linecap="round"/><path d="M-48,-2 C-52,-46 -26,-58 0,-58 C26,-58 52,-46 48,-2 C48,10 44,18 40,22 L-40,22 C-44,18 -48,10 -48,-2Z" fill="#4d3a7d" stroke="#3a2c55" stroke-width="5" stroke-linejoin="round"/><ellipse cx="0" cy="6" rx="40" ry="38" fill="#ffe3d0" stroke="#3a2c55" stroke-width="5"/><path d="M-42,2 C-44,-36 -18,-46 0,-44 C18,-46 44,-36 42,2 C34,-12 26,-16 18,-12 C12,-22 2,-24 -4,-16 C-14,-24 -30,-16 -42,2Z" fill="#4d3a7d" stroke="#3a2c55" stroke-width="4.5" stroke-linejoin="round"/><path d="M-24,-32 q10,-6 20,-4" fill="none" stroke="#7a64b3" stroke-width="4" stroke-linecap="round"/><g transform="translate(26,-54) rotate(28)"><path d="M0,0 l-17,-10 q-4,9 0,19z M0,0 l17,-10 q4,9 0,19z" fill="#b79cf0" stroke="#3a2c55" stroke-width="3.5" stroke-linejoin="round"/><circle r="5" fill="#f3c24f" stroke="#3a2c55" stroke-width="3"/></g><polygon transform="translate(-30,-26) scale(0.55)" points="0.0,-20.0 5.3,-7.3 19.0,-6.2 8.6,2.8 11.8,16.2 0.0,9.0 -11.8,16.2 -8.6,2.8 -19.0,-6.2 -5.3,-7.3" fill="#f3c24f" stroke="#3a2c55" stroke-width="6.4" stroke-linejoin="round"/><ellipse cx="-26" cy="20" rx="8" ry="5" fill="#f7a39a" opacity=".9"/><ellipse cx="26" cy="20" rx="8" ry="5" fill="#f7a39a" opacity=".9"/><path d="M-24,10 q8,-10 16,0" fill="none" stroke="#3a2c55" stroke-width="4.5" stroke-linecap="round"/><path d="M8,10 q8,-10 16,0" fill="none" stroke="#3a2c55" stroke-width="4.5" stroke-linecap="round"/><path d="M-7,24 q7,11 14,0 z" fill="#3a2c55" stroke="#3a2c55" stroke-width="2.5" stroke-linejoin="round"/><path d="M-4,28 q4,-3 8,0 q-4,4 -8,0z" fill="#e2504a"/><path d="M-26,58 C-18,50 -8,40 -2,34" fill="none" stroke="#3a2c55" stroke-width="21" stroke-linecap="round" stroke-linejoin="round"/><path d="M-26,58 C-18,50 -8,40 -2,34" fill="none" stroke="#ffe3d0" stroke-width="11" stroke-linecap="round" stroke-linejoin="round"/><path d="M26,58 C18,50 8,40 2,34" fill="none" stroke="#3a2c55" stroke-width="21" stroke-linecap="round" stroke-linejoin="round"/><path d="M26,58 C18,50 8,40 2,34" fill="none" stroke="#ffe3d0" stroke-width="11" stroke-linecap="round" stroke-linejoin="round"/><ellipse cx="0" cy="32" rx="8" ry="10" fill="#ffe3d0" stroke="#3a2c55" stroke-width="4.5"/></g><path transform="translate(130,150) scale(0.9)" d="M0,6 C-14,-4 -10,-16 0,-9 C10,-16 14,-4 0,6Z" fill="#e2504a" stroke="#3a2c55" stroke-width="3" stroke-linejoin="round"/><path transform="translate(160,118) scale(1.1)" d="M0,6 C-14,-4 -10,-16 0,-9 C10,-16 14,-4 0,6Z" fill="#e2504a" stroke="#3a2c55" stroke-width="3" stroke-linejoin="round"/><path transform="translate(118,70) scale(1.4)" d="M0,6 C-14,-4 -10,-16 0,-9 C10,-16 14,-4 0,6Z" fill="#e2504a" stroke="#3a2c55" stroke-width="3" stroke-linejoin="round"/><path transform="translate(290,150) scale(0.8)" d="M0,6 C-14,-4 -10,-16 0,-9 C10,-16 14,-4 0,6Z" fill="#e2504a" stroke="#3a2c55" stroke-width="3" stroke-linejoin="round"/><text x="160" y="250" text-anchor="middle" font-family="'M PLUS Rounded 1c', sans-serif" font-weight="800" font-size="40" fill="#3a2c55">ありがとう</text><text x="160" y="292" text-anchor="middle" font-family="'M PLUS Rounded 1c', sans-serif" font-weight="800" font-size="40" fill="#3a2c55">ございます</text></g></svg>