<svg xmlns="http://www.w3.org/2000/svg" viewBox="0 0 320 320" width="320" height="320" xmlns:c2pa="http://c2pa.org/manifest"><metadata><c2pa:manifest>AAAWgmp1bWIAAAAeanVtZGMycGEAEQAQgAAAqgA4m3EDYzJwYQAAABZcanVtYgAAAEdqdW1kYzJtYQARABCAAACqADibcQN1cm46YzJwYTpmMjk3MGFmNy04NTgwLTQ3MzEtOTg5MS02YjEyYjBmNzBlYjgAAAADl2p1bWIAAAApanVtZGMyYXMAEQAQgAAAqgA4m3EDYzJwYS5hc3NlcnRpb25zAAAAALxqdW1iAAAARGp1bWRjYm9yABEAEIAAAKoAOJtxE2MycGEuaW5ncmVkaWVudC52MwAAAAAYYzJzaMMi6dSGBPR4kOIqC9xH5GYAAABwY2JvcqNpZGM6Zm9ybWF0bWltYWdlL3N2Zyt4bWxqaW5zdGFuY2VJRHgseG1wOmlpZDo3YzIzMDJiMy1kYTdjLTQzNzQtYjU0OS1jMzhiNmQzZTIxNTVscmVsYXRpb25zaGlwaHBhcmVudE9mAAAB4mp1bWIAAABBanVtZGNib3IAEQAQgAAAqgA4m3ETYzJwYS5hY3Rpb25zLnYyAAAAABhjMnNoA6KsGlBhFD4dV4iXM4eANwAAAZljYm9yomdhY3Rpb25zgqJmYWN0aW9ua2MycGEub3BlbmVkanBhcmFtZXRlcnOha2luZ3JlZGllbnRzgaJjdXJseC1zZWxmI2p1bWJmPWMycGEuYXNzZXJ0aW9ucy9jMnBhLmluZ3JlZGllbnQudjNkaGFzaFggGOiyiQ741LSjbUSr+75v1u1bkMeTmoLfRHYk0VR9C0OkZmFjdGlvbngdY29tLmFudGhyb3BpYy5jbGF1ZGUucHJvdmlkZWRqcGFyYW1ldGVyc6F4H2NvbS5hbnRocm9waWMub3JpZ2luLWNvbmZpZGVuY2VndW5rbm93bmtkZXNjcmlwdGlvbnhmQ2xhdWRlIHByb3ZpZGVkIHRoaXMgZmlsZSBhdCB0aGUgcmVxdWVzdCBvZiBhIHVzZXIgYW5kIG1heSBoYXZlIGNyZWF0ZWQgb3IgbW9kaWZpZWQgdGhlIGZpbGUgY29udGVudHMubXNvZnR3YXJlQWdlbnShZG5hbWVmQ2xhdWRlcmFsbEFjdGlvbnNJbmNsdWRlZPUAAADIanVtYgAAAEBqdW1kY2JvcgARABCAAACqADibcRNjMnBhLmhhc2guZGF0YQAAAAAYYzJzaFg4a/AJIVpg8zrdH7UfVScAAACAY2JvcqVjYWxnZnNoYTI1NmNwYWRNAAAAAAAAAAAAAAAAAGRoYXNoWCA3xyUuzexe5j2wJ8AcwqvibnOCpwzfAH5T4JiPxAbuuWRuYW1lbmp1bWJmIG1hbmlmZXN0amV4Y2x1c2lvbnOBomVzdGFydBiWZmxlbmd0aBkeBAAAAj5qdW1iAAAAJ2p1bWRjMmNsABEAEIAAAKoAOJtxA2MycGEuY2xhaW0udjIAAAACD2Nib3KlY2FsZ2ZzaGEyNTZpc2lnbmF0dXJleE1zZWxmI2p1bWJmPS9jMnBhL3VybjpjMnBhOmYyOTcwYWY3LTg1ODAtNDczMS05ODkxLTZiMTJiMGY3MGViOC9jMnBhLnNpZ25hdHVyZWppbnN0YW5jZUlEeCx4bXA6aWlkOmI2NGM3YTRiLWU1ZDktNDRjNC1iMTc4LTk3YTcwMWZjMDIzMXJjcmVhdGVkX2Fzc2VydGlvbnODomN1cmx4LXNlbGYjanVtYmY9YzJwYS5hc3NlcnRpb25zL2MycGEuaW5ncmVkaWVudC52M2RoYXNoWCAY6LKJDvjUtKNtRKv7vm/W7VuQx5Oagt9EdiTRVH0LQ6JjdXJseCpzZWxmI2p1bWJmPWMycGEuYXNzZXJ0aW9ucy9jMnBhLmFjdGlvbnMudjJkaGFzaFggNYNk3x7JIGg+78NbDAOi8aPczSTBHhArv1f1U4Aw10yiY3VybHgpc2VsZiNqdW1iZj1jMnBhLmFzc2VydGlvbnMvYzJwYS5oYXNoLmRhdGFkaGFzaFggP0VjVTZ/mrjqAae5A51BS/ngTUbUhzqDfzndW9Y5KYh0Y2xhaW1fZ2VuZXJhdG9yX2luZm+jZG5hbWVvQW50aHJvcGljIEZpbGVzZ3ZlcnNpb25lMS4wLjBrc3BlY1ZlcnNpb25lMi40LjAAABA4anVtYgAAAChqdW1kYzJjcwARABCAAACqADibcQNjMnBhLnNpZ25hdHVyZQAAABAIY2JvctKEWQISogEmGCFZAgowggIGMIIBjaADAgECAhRA5aAK7sI50L64g/oGQgU9Z1UTADAKBggqhkjOPQQDAzBJMRcwFQYDVQQKEw5BbnRocm9waWMsIFBCQzEuMCwGA1UEAxMlQW50aHJvcGljIENvbnRlbnQgQ3JlZGVudGlhbHMgUm9vdCBDQTAeFw0yNjA4MDcxODQzNTZaFw0yODA4MDYxOTQzNTZaMEQxFzAVBgNVBAoTDkFudGhyb3BpYywgUEJDMSkwJwYDVQQDEyBBbnRocm9waWMgQ2xhdWRlIENvbnRlbnQgU2lnbmluZzBZMBMGByqGSM49AgEGCCqGSM49AwEHA0IABJh6CmvLUBgFFNU0vUKlOVtE6djd17L5SuwX0LemFisBM3dkd/3cyjxFA3Qo5S46fX0/ihY0VZ7mfb9KF703t5OjWDBWMA4GA1UdDwEB/wQEAwIHgDAVBgNVHSUEDjAMBgorBgEEAYPoXgIBMAwGA1UdEwEB/wQCMAAwHwYDVR0jBBgwFoAUzlHiBIFOZFsj+OPEz5o+nMHXXMIwCgYIKoZIzj0EAwMDZwAwZAIwMXMdFJ4BetLLVY7ORuE9noqbbAZOZn/aArXyTwFAZfKrPzxF2vPoJNf1+UCdg1XGAjBwX1zd9WGqYkqmL5SFqw1QySjr1zJfpJM9+1rdDwSPLMOPOjKuiXjoU/pUUeG9RwmhY3BhZFkNngAAAAAAAAAAAAAAAAAAAAAAAAAAAAAAAAAAAAAAAAAAAAAAAAAAAAAAAAAAAAAAAAAAAAAAAAAAAAAAAAAAAAAAAAAAAAAAAAAAAAAAAAAAAAAAAAAAAAAAAAAAAAAAAAAAAAAAAAAAAAAAAAAAAAAAAAAAAAAAAAAAAAAAAAAAAAAAAAAAAAAAAAAAAAAAAAAAAAAAAAAAAAAAAAAAAAAAAAAAAAAAAAAAAAAAAAAAAAAAAAAAAAAAAAAAAAAAAAAAAAAAAAAAAAAAAAAAAAAAAAAAAAAAAAAAAAAAAAAAAAAAAAAAAAAAAAAAAAAAAAAAAAAAAAAAAAAAAAAAAAAAAAAAAAAAAAAAAAAAAAAAAAAAAAAAAAAAAAAAAAAAAAAAAAAAAAAAAAAAAAAAAAAAAAAAAAAAAAAAAAAAAAAAAAAAAAAAAAAAAAAAAAAAAAAAAAAAAAAAAAAAAAAAAAAAAAAAAAAAAAAAAAAAAAAAAAAAAAAAAAAAAAAAAAAAAAAAAAAAAAAAAAAAAAAAAAAAAAAAAAAAAAAAAAAAAAAAAAAAAAAAAAAAAAAAAAAAAAAAAAAAAAAAAAAAAAAAAAAAAAAAAAAAAAAAAAAAAAAAAAAAAAAAAAAAAAAAAAAAAAAAAAAAAAAAAAAAAAAAAAAAAAAAAAAAAAAAAAAAAAAAAAAAAAAAAAAAAAAAAAAAAAAAAAAAAAAAAAAAAAAAAAAAAAAAAAAAAAAAAAAAAAAAAAAAAAAAAAAAAAAAAAAAAAAAAAAAAAAAAAAAAAAAAAAAAAAAAAAAAAAAAAAAAAAAAAAAAAAAAAAAAAAAAAAAAAAAAAAAAAAAAAAAAAAAAAAAAAAAAAAAAAAAAAAAAAAAAAAAAAAAAAAAAAAAAAAAAAAAAAAAAAAAAAAAAAAAAAAAAAAAAAAAAAAAAAAAAAAAAAAAAAAAAAAAAAAAAAAAAAAAAAAAAAAAAAAAAAAAAAAAAAAAAAAAAAAAAAAAAAAAAAAAAAAAAAAAAAAAAAAAAAAAAAAAAAAAAAAAAAAAAAAAAAAAAAAAAAAAAAAAAAAAAAAAAAAAAAAAAAAAAAAAAAAAAAAAAAAAAAAAAAAAAAAAAAAAAAAAAAAAAAAAAAAAAAAAAAAAAAAAAAAAAAAAAAAAAAAAAAAAAAAAAAAAAAAAAAAAAAAAAAAAAAAAAAAAAAAAAAAAAAAAAAAAAAAAAAAAAAAAAAAAAAAAAAAAAAAAAAAAAAAAAAAAAAAAAAAAAAAAAAAAAAAAAAAAAAAAAAAAAAAAAAAAAAAAAAAAAAAAAAAAAAAAAAAAAAAAAAAAAAAAAAAAAAAAAAAAAAAAAAAAAAAAAAAAAAAAAAAAAAAAAAAAAAAAAAAAAAAAAAAAAAAAAAAAAAAAAAAAAAAAAAAAAAAAAAAAAAAAAAAAAAAAAAAAAAAAAAAAAAAAAAAAAAAAAAAAAAAAAAAAAAAAAAAAAAAAAAAAAAAAAAAAAAAAAAAAAAAAAAAAAAAAAAAAAAAAAAAAAAAAAAAAAAAAAAAAAAAAAAAAAAAAAAAAAAAAAAAAAAAAAAAAAAAAAAAAAAAAAAAAAAAAAAAAAAAAAAAAAAAAAAAAAAAAAAAAAAAAAAAAAAAAAAAAAAAAAAAAAAAAAAAAAAAAAAAAAAAAAAAAAAAAAAAAAAAAAAAAAAAAAAAAAAAAAAAAAAAAAAAAAAAAAAAAAAAAAAAAAAAAAAAAAAAAAAAAAAAAAAAAAAAAAAAAAAAAAAAAAAAAAAAAAAAAAAAAAAAAAAAAAAAAAAAAAAAAAAAAAAAAAAAAAAAAAAAAAAAAAAAAAAAAAAAAAAAAAAAAAAAAAAAAAAAAAAAAAAAAAAAAAAAAAAAAAAAAAAAAAAAAAAAAAAAAAAAAAAAAAAAAAAAAAAAAAAAAAAAAAAAAAAAAAAAAAAAAAAAAAAAAAAAAAAAAAAAAAAAAAAAAAAAAAAAAAAAAAAAAAAAAAAAAAAAAAAAAAAAAAAAAAAAAAAAAAAAAAAAAAAAAAAAAAAAAAAAAAAAAAAAAAAAAAAAAAAAAAAAAAAAAAAAAAAAAAAAAAAAAAAAAAAAAAAAAAAAAAAAAAAAAAAAAAAAAAAAAAAAAAAAAAAAAAAAAAAAAAAAAAAAAAAAAAAAAAAAAAAAAAAAAAAAAAAAAAAAAAAAAAAAAAAAAAAAAAAAAAAAAAAAAAAAAAAAAAAAAAAAAAAAAAAAAAAAAAAAAAAAAAAAAAAAAAAAAAAAAAAAAAAAAAAAAAAAAAAAAAAAAAAAAAAAAAAAAAAAAAAAAAAAAAAAAAAAAAAAAAAAAAAAAAAAAAAAAAAAAAAAAAAAAAAAAAAAAAAAAAAAAAAAAAAAAAAAAAAAAAAAAAAAAAAAAAAAAAAAAAAAAAAAAAAAAAAAAAAAAAAAAAAAAAAAAAAAAAAAAAAAAAAAAAAAAAAAAAAAAAAAAAAAAAAAAAAAAAAAAAAAAAAAAAAAAAAAAAAAAAAAAAAAAAAAAAAAAAAAAAAAAAAAAAAAAAAAAAAAAAAAAAAAAAAAAAAAAAAAAAAAAAAAAAAAAAAAAAAAAAAAAAAAAAAAAAAAAAAAAAAAAAAAAAAAAAAAAAAAAAAAAAAAAAAAAAAAAAAAAAAAAAAAAAAAAAAAAAAAAAAAAAAAAAAAAAAAAAAAAAAAAAAAAAAAAAAAAAAAAAAAAAAAAAAAAAAAAAAAAAAAAAAAAAAAAAAAAAAAAAAAAAAAAAAAAAAAAAAAAAAAAAAAAAAAAAAAAAAAAAAAAAAAAAAAAAAAAAAAAAAAAAAAAAAAAAAAAAAAAAAAAAAAAAAAAAAAAAAAAAAAAAAAAAAAAAAAAAAAAAAAAAAAAAAAAAAAAAAAAAAAAAAAAAAAAAAAAAAAAAAAAAAAAAAAAAAAAAAAAAAAAAAAAAAAAAAAAAAAAAAAAAAAAAAAAAAAAAAAAAAAAAAAAAAAAAAAAAAAAAAAAAAAAAAAAAAAAAAAAAAAAAAAAAAAAAAAAAAAAAAAAAAAAAAAAAAAAAAAAAAAAAAAAAAAAAAAAAAAAAAAAAAAAAAAAAAAAAAAAAAAAAAAAAAAAAAAAAAAAAAAAAAAAAAAAAAAAAAAAAAAAAAAAAAAAAAAAAAAAAAAAAAAAAAAAAAAAAAAAAAAAAAAAAAAAAAAAAAAAAAAAAAAAAAAAAAAAAAAAAAAAAAAAAAAAAAAAAAAAAAAAAAAAAAAAAAAAAAAAAAAAAAAAAAAAAAAAAAAAAAAAAAAAAAAAAAAAAAAAAAAAAAAAAAAAAAAAAAAAAAAAAAAAAAAAAAAAAAAAAAAAAAAAAAAAAAAAAAAAAAAAAAAAAAAAAAAAAAAAAAAAAAAAAAAAAAAAAAAAAAAAAAAAAAAAAAAAAAAAAAAAAAAAAAAAAAAAAAAAAAAAAAAAAAAAAAAAAAAAAAAAAAAAAAAAAAAAAAAAAAAAAAAAAAAAAAAAAAAAAAAAAAAAAAAAAAAAAAAAAAAAAAAAAAAAAAAAAAAAAAAAAAAAAAAAAAAAAAAAAAAAAAAAAAAAAAAAAAAAAAAAAAAAAAAAAAAAAAAAAAAAAAAAAAAAAAAAAAAAAAAAAAAAAAAAAAAAAAAAAAAAAAAAAAAAAAAAAAAAAAAAAAAAAAAAAAAAAAAAAAAAAAAAAAAAAAAAAAAAAAAAAAAAAAAAAAAAAAAAAAAAAAAAAAAAAAAAAAAAAAAAAAAAAAAAAAAAAAAAAAAAAAAAAAAAAAAAAAAAAAAAAAAAAAAAAAAAAAAAAAAAAAAAAAAAAAAAAAAAAAAAAAAAAAAAAAAAAAAAAAAAAAAAAAAAAAAAAAAAAAAAAAAAAAAAAAAAAAAAAAAAAAAAAAAAAAAAAAAAAAAAAAAAAAAAAAAAAAAAAAAAAAAAAAAAAAAAAAAAAAAAAAAAAAAAAAAAAAAAAAAAAAAAAAAAAAAAAAAAAAAAAAAAAAAAAAAAAAAAAAAAAAAAAAAAAAAAAAAAAAAAAAAAAAAAAAAAAAAAAAAAAAAAAAAAAAAAAAAAAAAAAAAAAAAAAAAAAAAAAAAAAAAAAAAAAAAAAAAAAAAAAAAAAAAAAAAAAAAAAAAAAAAAAAAAAAAAAAAAAAAAAAAAAAAAAAAAAAAAAAAAAAAAAAAAAAAAAAAAAAAAAAAAAAAAAAAAAAAAAAAAAAAAAAAAAAAAAAAAAAAAAAAAAAAAAAAAAAAAAAAAAAAAAAAAAAAAAAAAAAAAAAAAAAAAAAAAAAAAAAAAAAAAAAAAAAAAAAAAAAAAAAAAAAAAAAAAAAAAAAAAAAAAAAAAAAAAAAAAAAAAAAAAAAAAAAAAAAAAAAAAAAAAAAAAAAAAAAAAAAAAAAAAAAAAAAAAAAAAAAAAAAAAAAAAAAAAAAAAAAAAAAAAAAAAAAAAAAAAAAAAAAAAAAAAAAAAAAAAAAAAAAAAAAAAAAAAAAAAAAAAAAAAAAAAAAAAAAAAAAAAAAAAAAAAAAAAAAAAAAAAAAAAAAAAAAAAAAAAAAAAAAAAAAAAAAAAAAAAAAAAAAAAAAAAAAAAAAAAAAAAAAAAAAAAAAAAAAAAAAAAAAAAAAAAAAAAAAAAAAAAAAAAAAAAAAAAAAAAAAAAAAAAAAAAAAAAAAAAAAAAAAAAAPZYQBb9KeI85wYFsTwsj4cRPg9UC3TF1TSvFXF/9UQXtygHIEju9YDjA/oy0jjjcIL+te9NUYE7Rusxw5EiAuN+ptI=</c2pa:manifest></metadata><defs><style>@import url("https://fonts.googleapis.com/css2?family=M+PLUS+Rounded+1c:wght@800&amp;display=swap");</style><filter id="oll1" x="-5%" y="-5%" width="110%" height="110%"><feMorphology in="SourceAlpha" operator="dilate" radius="7" result="d"/><feFlood flood-color="#fff"/><feComposite in2="d" operator="in" result="w"/><feMerge><feMergeNode in="w"/><feMergeNode in="SourceGraphic"/></feMerge></filter></defs><g filter="url(#oll1)"><g transform="translate(254,218) rotate(12) scale(-0.62,0.62) translate(-110,-212)"><g transform="translate(0,0) scale(1)"><path d="M52,206 C26,196 26,230 56,224" fill="none" stroke="#3a2c55" stroke-width="17" stroke-linecap="round" stroke-linejoin="round"/><path d="M52,206 C26,196 26,230 56,224" fill="none" stroke="#f3c24f" stroke-width="7" stroke-linecap="round" stroke-linejoin="round"/><path d="M82,234 h36 l8,12 h-52z" fill="#d99b2b" stroke="#3a2c55" stroke-width="5" stroke-linejoin="round"/><path d="M50,210 C52,192 78,186 100,186 C124,186 142,194 150,204 L182,190 C190,186 194,192 188,196 L158,222 C146,234 122,238 100,238 C74,238 50,228 50,210Z" fill="#f3c24f" stroke="#3a2c55" stroke-width="5.5" stroke-linejoin="round"/><path d="M64,214 C80,226 118,228 140,216" fill="none" stroke="#d99b2b" stroke-width="5" stroke-linecap="round"/><ellipse cx="78" cy="200" rx="10" ry="4.5" fill="#ffffff" opacity=".6" transform="rotate(-12 78 200)"/><ellipse cx="100" cy="187" rx="28" ry="7" fill="#d99b2b" stroke="#3a2c55" stroke-width="4.5"/><path d="M84,186 C86,172 114,172 116,186" fill="#f3c24f" stroke="#3a2c55" stroke-width="4.5"/><circle cx="100" cy="170" r="6" fill="#f3c24f" stroke="#3a2c55" stroke-width="4"/></g></g><path d="M206.2,194.7 L204.5,196.2 L202.8,197.6 L201.3,199.1 L200.1,200.6 L199.3,202.0 L198.7,203.3 L198.5,204.5 L198.6,205.5 L198.8,206.3 L199.2,206.5 L199.7,205.8 L203.3,202.5 L207.8,203.4 L208.3,203.9 L208.2,203.6 L208.1,202.7 L208.0,201.5 L207.9,199.9 L207.8,197.9 L207.5,195.5 L207.0,192.9 L206.2,189.9 L205.1,186.8 L203.5,183.6 L201.5,180.2 L199.0,176.8 L196.0,173.4 L192.4,170.0 L188.2,166.6 L183.6,163.1 L178.4,159.6 L172.8,156.0 L151.5,187.4 L156.7,191.1 L161.3,194.4 L165.6,197.4 L169.5,200.0 L173.1,202.3 L176.6,204.1 L179.8,205.5 L182.9,206.7 L185.8,207.5 L188.5,208.0 L191.0,208.4 L193.3,208.7 L195.4,208.9 L197.1,209.1 L198.5,209.3 L199.6,209.5 L200.4,209.8 L201.0,210.3 L201.8,211.2 L206.6,212.2 L210.4,208.7 L211.0,207.4 L211.4,206.7 L211.7,206.2 L211.8,205.7 L211.8,205.1 L211.6,204.3 L211.2,203.3 L210.8,202.0 L210.3,200.4 L210.0,198.6 L209.9,196.4Z" fill="#efe7ff" stroke="#3a2c55" stroke-width="5" stroke-linejoin="round"/><path d="M205.1,205.9 L205.1,206.5 L205.1,206.9 L205.0,207.2 L205.0,207.3 L204.8,207.3 L204.6,207.1 L204.3,206.7 L203.9,206.1 L203.3,205.4 L202.5,204.5 L201.6,203.4 L200.4,202.1 L199.0,200.6 L197.4,199.0 L195.4,197.1 L193.2,195.1 L190.7,192.9" fill="none" stroke="#d9c9fb" stroke-width="5" stroke-linecap="round"/><circle cx="199.2" cy="206.5" r="7" fill="#efe7ff" stroke="#3a2c55" stroke-width="3.5"/><circle cx="207.5" cy="195.5" r="5" fill="#efe7ff" stroke="#3a2c55" stroke-width="3.5"/><g transform="translate(132,104) rotate(-24) scale(0.95)"><path d="M26,56 C46,64 60,70 74,70" fill="none" stroke="#3a2c55" stroke-width="21" stroke-linecap="round" stroke-linejoin="round"/><path d="M26,56 C46,64 60,70 74,70" fill="none" stroke="#ffe3d0" stroke-width="11" stroke-linecap="round" stroke-linejoin="round"/><circle cx="78" cy="70" r="8" fill="#ffe3d0" stroke="#3a2c55" stroke-width="4.5"/><path d="M-8,40 h16 v10 h-16z" fill="#ffe3d0" stroke="#3a2c55" stroke-width="4"/><path d="M-30,56 C-24,46 24,46 30,56 L24,84 L-24,84Z" fill="#b79cf0" stroke="#3a2c55" stroke-width="5" stroke-linejoin="round"/><path d="M-20,50 C-8,58 8,58 20,50" fill="none" stroke="#f3c24f" stroke-width="5" stroke-linecap="round"/><circle cx="0" cy="68" r="5" fill="#f3c24f" stroke="#3a2c55" stroke-width="3"/><path d="M20,-60 C48,-80 84,-66 86,-30 C88,0 74,22 84,50 C62,44 52,22 52,0 C52,-22 42,-40 22,-44Z" fill="#4d3a7d" stroke="#3a2c55" stroke-width="5" stroke-linejoin="round"/><path d="M44,-60 C66,-54 72,-30 68,-4 M58,-40 C62,-24 60,0 66,24" fill="none" stroke="#7a64b3" stroke-width="3.5" stroke-linecap="round"/><path d="M-48,-2 C-52,-46 -26,-58 0,-58 C26,-58 52,-46 48,-2 C48,10 44,18 40,22 L-40,22 C-44,18 -48,10 -48,-2Z" fill="#4d3a7d" stroke="#3a2c55" stroke-width="5" stroke-linejoin="round"/><ellipse cx="0" cy="6" rx="40" ry="38" fill="#ffe3d0" stroke="#3a2c55" stroke-width="5"/><path d="M-42,2 C-44,-36 -18,-46 0,-44 C18,-46 44,-36 42,2 C34,-12 26,-16 18,-12 C12,-22 2,-24 -4,-16 C-14,-24 -30,-16 -42,2Z" fill="#4d3a7d" stroke="#3a2c55" stroke-width="4.5" stroke-linejoin="round"/><path d="M-24,-32 q10,-6 20,-4" fill="none" stroke="#7a64b3" stroke-width="4" stroke-linecap="round"/><g transform="translate(26,-54) rotate(28)"><path d="M0,0 l-17,-10 q-4,9 0,19z M0,0 l17,-10 q4,9 0,19z" fill="#b79cf0" stroke="#3a2c55" stroke-width="3.5" stroke-linejoin="round"/><circle r="5" fill="#f3c24f" stroke="#3a2c55" stroke-width="3"/></g><polygon transform="translate(-30,-26) scale(0.55)" points="0.0,-20.0 5.3,-7.3 19.0,-6.2 8.6,2.8 11.8,16.2 0.0,9.0 -11.8,16.2 -8.6,2.8 -19.0,-6.2 -5.3,-7.3" fill="#f3c24f" stroke="#3a2c55" stroke-width="6.4" stroke-linejoin="round"/><ellipse cx="-26" cy="20" rx="8" ry="5" fill="#f7a39a" opacity=".9"/><ellipse cx="26" cy="20" rx="8" ry="5" fill="#f7a39a" opacity=".9"/><path d="M-24,6 q8,8 16,0" fill="none" stroke="#3a2c55" stroke-width="4.5" stroke-linecap="round"/><path d="M8,6 q8,8 16,0" fill="none" stroke="#3a2c55" stroke-width="4.5" stroke-linecap="round"/><path d="M-6,24 q6,6 12,0" fill="none" stroke="#3a2c55" stroke-width="4" stroke-linecap="round"/><path d="M-24,58 C-6,66 4,66 10,60" fill="none" stroke="#3a2c55" stroke-width="21" stroke-linecap="round" stroke-linejoin="round"/><path d="M-24,58 C-6,66 4,66 10,60" fill="none" stroke="#ffe3d0" stroke-width="11" stroke-linecap="round" stroke-linejoin="round"/><circle cx="12" cy="58" r="8" fill="#ffe3d0" stroke="#3a2c55" stroke-width="4.5"/><circle cx="2" cy="64" r="4" fill="#f3c24f" stroke="#3a2c55" stroke-width="2.5"/></g><path transform="translate(250,60) scale(1)" d="M0,-12 Q2,-2 12,0 Q2,2 0,12 Q-2,2 -12,0 Q-2,-2 0,-12Z" fill="#f3c24f" stroke="#3a2c55" stroke-width="2.5" stroke-linejoin="round"/><path transform="translate(286,110) scale(0.7)" d="M0,-12 Q2,-2 12,0 Q2,2 0,12 Q-2,2 -12,0 Q-2,-2 0,-12Z" fill="#43bfae" stroke="#3a2c55" stroke-width="2.5" stroke-linejoin="round"/><path transform="translate(210,30) scale(0.6)" d="M0,-12 Q2,-2 12,0 Q2,2 0,12 Q-2,2 -12,0 Q-2,-2 0,-12Z" fill="#b79cf0" stroke="#3a2c55" stroke-width="2.5" stroke-linejoin="round"/><text x="160" y="292" text-anchor="middle" font-family="'M PLUS Rounded 1c', sans-serif" font-weight="800" font-size="34" fill="#3a2c55">かしこまりました</text></g></svg>