<svg xmlns="http://www.w3.org/2000/svg" viewBox="0 0 320 320" width="320" height="320" xmlns:c2pa="http://c2pa.org/manifest"><metadata><c2pa:manifest>AAAWgmp1bWIAAAAeanVtZGMycGEAEQAQgAAAqgA4m3EDYzJwYQAAABZcanVtYgAAAEdqdW1kYzJtYQARABCAAACqADibcQN1cm46YzJwYTo4YmQ3ODk2Mi00OTA0LTQ5N2YtODBjZS02YzMwNTRhMWVhN2UAAAADl2p1bWIAAAApanVtZGMyYXMAEQAQgAAAqgA4m3EDYzJwYS5hc3NlcnRpb25zAAAAALxqdW1iAAAARGp1bWRjYm9yABEAEIAAAKoAOJtxE2MycGEuaW5ncmVkaWVudC52MwAAAAAYYzJzaBd0SDYvkqb3l9pLkTiLVtYAAABwY2JvcqNpZGM6Zm9ybWF0bWltYWdlL3N2Zyt4bWxqaW5zdGFuY2VJRHgseG1wOmlpZDo0ZTc1YzNkMC03NjI5LTRlYzEtYWI2Zi0yOWFmNTEyNTQxZTdscmVsYXRpb25zaGlwaHBhcmVudE9mAAAB4mp1bWIAAABBanVtZGNib3IAEQAQgAAAqgA4m3ETYzJwYS5hY3Rpb25zLnYyAAAAABhjMnNo7UKJZCTV98XylDXMh/Jn4wAAAZljYm9yomdhY3Rpb25zgqJmYWN0aW9ua2MycGEub3BlbmVkanBhcmFtZXRlcnOha2luZ3JlZGllbnRzgaJjdXJseC1zZWxmI2p1bWJmPWMycGEuYXNzZXJ0aW9ucy9jMnBhLmluZ3JlZGllbnQudjNkaGFzaFggcO4c/wREm0ov9cOHFwz8DGYLd1zTwmR9JJYDUkW8AOqkZmFjdGlvbngdY29tLmFudGhyb3BpYy5jbGF1ZGUucHJvdmlkZWRqcGFyYW1ldGVyc6F4H2NvbS5hbnRocm9waWMub3JpZ2luLWNvbmZpZGVuY2VndW5rbm93bmtkZXNjcmlwdGlvbnhmQ2xhdWRlIHByb3ZpZGVkIHRoaXMgZmlsZSBhdCB0aGUgcmVxdWVzdCBvZiBhIHVzZXIgYW5kIG1heSBoYXZlIGNyZWF0ZWQgb3IgbW9kaWZpZWQgdGhlIGZpbGUgY29udGVudHMubXNvZnR3YXJlQWdlbnShZG5hbWVmQ2xhdWRlcmFsbEFjdGlvbnNJbmNsdWRlZPUAAADIanVtYgAAAEBqdW1kY2JvcgARABCAAACqADibcRNjMnBhLmhhc2guZGF0YQAAAAAYYzJzaAzdzqijWSg6Pni5rnnpqawAAACAY2JvcqVjYWxnZnNoYTI1NmNwYWRNAAAAAAAAAAAAAAAAAGRoYXNoWCDpGA8AlHbvHZoXRonEkVq9cnXEgQgnojwI3TNVj96+zGRuYW1lbmp1bWJmIG1hbmlmZXN0amV4Y2x1c2lvbnOBomVzdGFydBiWZmxlbmd0aBkeBAAAAj5qdW1iAAAAJ2p1bWRjMmNsABEAEIAAAKoAOJtxA2MycGEuY2xhaW0udjIAAAACD2Nib3KlY2FsZ2ZzaGEyNTZpc2lnbmF0dXJleE1zZWxmI2p1bWJmPS9jMnBhL3VybjpjMnBhOjhiZDc4OTYyLTQ5MDQtNDk3Zi04MGNlLTZjMzA1NGExZWE3ZS9jMnBhLnNpZ25hdHVyZWppbnN0YW5jZUlEeCx4bXA6aWlkOjkyNWI1NjFjLWFiMjItNDkyYS04MjA1LTg3YTI1YTUyYjMwZnJjcmVhdGVkX2Fzc2VydGlvbnODomN1cmx4LXNlbGYjanVtYmY9YzJwYS5hc3NlcnRpb25zL2MycGEuaW5ncmVkaWVudC52M2RoYXNoWCBw7hz/BESbSi/1w4cXDPwMZgt3XNPCZH0klgNSRbwA6qJjdXJseCpzZWxmI2p1bWJmPWMycGEuYXNzZXJ0aW9ucy9jMnBhLmFjdGlvbnMudjJkaGFzaFggn7VgHUVEsRdG7ikZ0gxJyY3TigxeOhkAURRZRN5IvNKiY3VybHgpc2VsZiNqdW1iZj1jMnBhLmFzc2VydGlvbnMvYzJwYS5oYXNoLmRhdGFkaGFzaFgg+KYneZ04iHsflZ6P4xCQeryQEwvgHHPCDlixy0Le+Fl0Y2xhaW1fZ2VuZXJhdG9yX2luZm+jZG5hbWVvQW50aHJvcGljIEZpbGVzZ3ZlcnNpb25lMS4wLjBrc3BlY1ZlcnNpb25lMi40LjAAABA4anVtYgAAAChqdW1kYzJjcwARABCAAACqADibcQNjMnBhLnNpZ25hdHVyZQAAABAIY2JvctKEWQISogEmGCFZAgowggIGMIIBjaADAgECAhRA5aAK7sI50L64g/oGQgU9Z1UTADAKBggqhkjOPQQDAzBJMRcwFQYDVQQKEw5BbnRocm9waWMsIFBCQzEuMCwGA1UEAxMlQW50aHJvcGljIENvbnRlbnQgQ3JlZGVudGlhbHMgUm9vdCBDQTAeFw0yNjA4MDcxODQzNTZaFw0yODA4MDYxOTQzNTZaMEQxFzAVBgNVBAoTDkFudGhyb3BpYywgUEJDMSkwJwYDVQQDEyBBbnRocm9waWMgQ2xhdWRlIENvbnRlbnQgU2lnbmluZzBZMBMGByqGSM49AgEGCCqGSM49AwEHA0IABJh6CmvLUBgFFNU0vUKlOVtE6djd17L5SuwX0LemFisBM3dkd/3cyjxFA3Qo5S46fX0/ihY0VZ7mfb9KF703t5OjWDBWMA4GA1UdDwEB/wQEAwIHgDAVBgNVHSUEDjAMBgorBgEEAYPoXgIBMAwGA1UdEwEB/wQCMAAwHwYDVR0jBBgwFoAUzlHiBIFOZFsj+OPEz5o+nMHXXMIwCgYIKoZIzj0EAwMDZwAwZAIwMXMdFJ4BetLLVY7ORuE9noqbbAZOZn/aArXyTwFAZfKrPzxF2vPoJNf1+UCdg1XGAjBwX1zd9WGqYkqmL5SFqw1QySjr1zJfpJM9+1rdDwSPLMOPOjKuiXjoU/pUUeG9RwmhY3BhZFkNngAAAAAAAAAAAAAAAAAAAAAAAAAAAAAAAAAAAAAAAAAAAAAAAAAAAAAAAAAAAAAAAAAAAAAAAAAAAAAAAAAAAAAAAAAAAAAAAAAAAAAAAAAAAAAAAAAAAAAAAAAAAAAAAAAAAAAAAAAAAAAAAAAAAAAAAAAAAAAAAAAAAAAAAAAAAAAAAAAAAAAAAAAAAAAAAAAAAAAAAAAAAAAAAAAAAAAAAAAAAAAAAAAAAAAAAAAAAAAAAAAAAAAAAAAAAAAAAAAAAAAAAAAAAAAAAAAAAAAAAAAAAAAAAAAAAAAAAAAAAAAAAAAAAAAAAAAAAAAAAAAAAAAAAAAAAAAAAAAAAAAAAAAAAAAAAAAAAAAAAAAAAAAAAAAAAAAAAAAAAAAAAAAAAAAAAAAAAAAAAAAAAAAAAAAAAAAAAAAAAAAAAAAAAAAAAAAAAAAAAAAAAAAAAAAAAAAAAAAAAAAAAAAAAAAAAAAAAAAAAAAAAAAAAAAAAAAAAAAAAAAAAAAAAAAAAAAAAAAAAAAAAAAAAAAAAAAAAAAAAAAAAAAAAAAAAAAAAAAAAAAAAAAAAAAAAAAAAAAAAAAAAAAAAAAAAAAAAAAAAAAAAAAAAAAAAAAAAAAAAAAAAAAAAAAAAAAAAAAAAAAAAAAAAAAAAAAAAAAAAAAAAAAAAAAAAAAAAAAAAAAAAAAAAAAAAAAAAAAAAAAAAAAAAAAAAAAAAAAAAAAAAAAAAAAAAAAAAAAAAAAAAAAAAAAAAAAAAAAAAAAAAAAAAAAAAAAAAAAAAAAAAAAAAAAAAAAAAAAAAAAAAAAAAAAAAAAAAAAAAAAAAAAAAAAAAAAAAAAAAAAAAAAAAAAAAAAAAAAAAAAAAAAAAAAAAAAAAAAAAAAAAAAAAAAAAAAAAAAAAAAAAAAAAAAAAAAAAAAAAAAAAAAAAAAAAAAAAAAAAAAAAAAAAAAAAAAAAAAAAAAAAAAAAAAAAAAAAAAAAAAAAAAAAAAAAAAAAAAAAAAAAAAAAAAAAAAAAAAAAAAAAAAAAAAAAAAAAAAAAAAAAAAAAAAAAAAAAAAAAAAAAAAAAAAAAAAAAAAAAAAAAAAAAAAAAAAAAAAAAAAAAAAAAAAAAAAAAAAAAAAAAAAAAAAAAAAAAAAAAAAAAAAAAAAAAAAAAAAAAAAAAAAAAAAAAAAAAAAAAAAAAAAAAAAAAAAAAAAAAAAAAAAAAAAAAAAAAAAAAAAAAAAAAAAAAAAAAAAAAAAAAAAAAAAAAAAAAAAAAAAAAAAAAAAAAAAAAAAAAAAAAAAAAAAAAAAAAAAAAAAAAAAAAAAAAAAAAAAAAAAAAAAAAAAAAAAAAAAAAAAAAAAAAAAAAAAAAAAAAAAAAAAAAAAAAAAAAAAAAAAAAAAAAAAAAAAAAAAAAAAAAAAAAAAAAAAAAAAAAAAAAAAAAAAAAAAAAAAAAAAAAAAAAAAAAAAAAAAAAAAAAAAAAAAAAAAAAAAAAAAAAAAAAAAAAAAAAAAAAAAAAAAAAAAAAAAAAAAAAAAAAAAAAAAAAAAAAAAAAAAAAAAAAAAAAAAAAAAAAAAAAAAAAAAAAAAAAAAAAAAAAAAAAAAAAAAAAAAAAAAAAAAAAAAAAAAAAAAAAAAAAAAAAAAAAAAAAAAAAAAAAAAAAAAAAAAAAAAAAAAAAAAAAAAAAAAAAAAAAAAAAAAAAAAAAAAAAAAAAAAAAAAAAAAAAAAAAAAAAAAAAAAAAAAAAAAAAAAAAAAAAAAAAAAAAAAAAAAAAAAAAAAAAAAAAAAAAAAAAAAAAAAAAAAAAAAAAAAAAAAAAAAAAAAAAAAAAAAAAAAAAAAAAAAAAAAAAAAAAAAAAAAAAAAAAAAAAAAAAAAAAAAAAAAAAAAAAAAAAAAAAAAAAAAAAAAAAAAAAAAAAAAAAAAAAAAAAAAAAAAAAAAAAAAAAAAAAAAAAAAAAAAAAAAAAAAAAAAAAAAAAAAAAAAAAAAAAAAAAAAAAAAAAAAAAAAAAAAAAAAAAAAAAAAAAAAAAAAAAAAAAAAAAAAAAAAAAAAAAAAAAAAAAAAAAAAAAAAAAAAAAAAAAAAAAAAAAAAAAAAAAAAAAAAAAAAAAAAAAAAAAAAAAAAAAAAAAAAAAAAAAAAAAAAAAAAAAAAAAAAAAAAAAAAAAAAAAAAAAAAAAAAAAAAAAAAAAAAAAAAAAAAAAAAAAAAAAAAAAAAAAAAAAAAAAAAAAAAAAAAAAAAAAAAAAAAAAAAAAAAAAAAAAAAAAAAAAAAAAAAAAAAAAAAAAAAAAAAAAAAAAAAAAAAAAAAAAAAAAAAAAAAAAAAAAAAAAAAAAAAAAAAAAAAAAAAAAAAAAAAAAAAAAAAAAAAAAAAAAAAAAAAAAAAAAAAAAAAAAAAAAAAAAAAAAAAAAAAAAAAAAAAAAAAAAAAAAAAAAAAAAAAAAAAAAAAAAAAAAAAAAAAAAAAAAAAAAAAAAAAAAAAAAAAAAAAAAAAAAAAAAAAAAAAAAAAAAAAAAAAAAAAAAAAAAAAAAAAAAAAAAAAAAAAAAAAAAAAAAAAAAAAAAAAAAAAAAAAAAAAAAAAAAAAAAAAAAAAAAAAAAAAAAAAAAAAAAAAAAAAAAAAAAAAAAAAAAAAAAAAAAAAAAAAAAAAAAAAAAAAAAAAAAAAAAAAAAAAAAAAAAAAAAAAAAAAAAAAAAAAAAAAAAAAAAAAAAAAAAAAAAAAAAAAAAAAAAAAAAAAAAAAAAAAAAAAAAAAAAAAAAAAAAAAAAAAAAAAAAAAAAAAAAAAAAAAAAAAAAAAAAAAAAAAAAAAAAAAAAAAAAAAAAAAAAAAAAAAAAAAAAAAAAAAAAAAAAAAAAAAAAAAAAAAAAAAAAAAAAAAAAAAAAAAAAAAAAAAAAAAAAAAAAAAAAAAAAAAAAAAAAAAAAAAAAAAAAAAAAAAAAAAAAAAAAAAAAAAAAAAAAAAAAAAAAAAAAAAAAAAAAAAAAAAAAAAAAAAAAAAAAAAAAAAAAAAAAAAAAAAAAAAAAAAAAAAAAAAAAAAAAAAAAAAAAAAAAAAAAAAAAAAAAAAAAAAAAAAAAAAAAAAAAAAAAAAAAAAAAAAAAAAAAAAAAAAAAAAAAAAAAAAAAAAAAAAAAAAAAAAAAAAAAAAAAAAAAAAAAAAAAAAAAAAAAAAAAAAAAAAAAAAAAAAAAAAAAAAAAAAAAAAAAAAAAAAAAAAAAAAAAAAAAAAAAAAAAAAAAAAAAAAAAAAAAAAAAAAAAAAAAAAAAAAAAAAAAAAAAAAAAAAAAAAAAAAAAAAAAAAAAAAAAAAAAAAAAAAAAAAAAAAAAAAAAAAAAAAAAAAAAAAAAAAAAAAAAAAAAAAAAAAAAAAAAAAAAAAAAAAAAAAAAAAAAAAAAAAAAAAAAAAAAAAAAAAAAAAAAAAAAAAAAAAAAAAAAAAAAAAAAAAAAAAAAAAAAAAAAAAAAAAAAAAAAAAAAAAAAAAAAAAAAAAAAAAAAAAAAAAAAAAAAAAAAAAAAAAAAAAAAAAAAAAAAAAAAAAAAAAAAAAAAAAAAAAAAAAAAAAAAAAAAAAAAAAAAAAAAAAAAAAAAAAAAAAAAAAAAAAAAAAAAAAAAAAAAAAAAAAAAAAAAAAAAAAAAAAAAAAAAAAAAAAAAAAAAAAAAAAAAAAAAAAAAAAAAAAAAAAAAAAAAAAAAAAAAAAAAAAAAAAAAAAAAAAAAAAAAAAAAAAAAAAAAAAAAAAAAAAAAAAAAAAAAAAAAAAAAAAAAAAAAAAAAAAAAAAAAAAAAAAAAAAAAAAAAAAAAAAAAAAAAAAAAAAAAAAAAAAAAAAAAAAAAAAAAAAAAAAAAAAAAAAAAAAAAAAAAAAAAAAAAAAAAAAAAAAAAAAAAAAAAAAAAAAAAAAAAAAAAAAAAAAAAAAAAAAAAAAAAAAAAAAAAAAAAAAAAAAAAAAAAAAAAAAAAAAAAAAAAAAAAAAAAAAAAAAAAAAAAAAAAAAAAAAAAAAAAAAAAAAAAAAAAAAAAAAAAAAAAAAAAAAAAAAAAAAAAAAAAAAAAAAAAAAAAAAAAAAAAAAAAAAAAAAAAAAAAAAAAAAAAAAAAAAAAAAAAAAAAAAAAAAAAAAAAAAAAAAAAAAAAAAAAAAAAAAAAAAAAAAAAAAAAAAAAAAAAAAAAAAAAAAAAAAAAAAAAAAAAAAAAAAAAAAAAAAAAAAAAAAAAAAAAAAAAAAAAAAAAAAAAAAAAAAAAAAAAAAAAAAAAAAAAAAAAAAAAAAAAAAAAAAAAAAAAAAAAAAAAAAAAAAAAAAAAAAAAAAAAAAAAAAAAAAAAAAAAAAAAAAAAAAAAAAAAAAAAAAAAAAAAAAAAAAAAAAAAAAAAAAAAAAAAAAAAAAAAAAAAAAAAAAAAAAAAAAAAAAAAAAAAAAAAAAAAAAAAAAAAAAAAAAAAAAAAAAAAAAAAAAAAAAAAAAAAAAAAAAAAAAAAAAAAAAAAAAAAAAAAAAAAAAAAAAAAAAAAAAAAAAAAAAAAAAAAAAAAAAAAAAAAAAAAAAAAAAAAAAAAAAAAAAAAAAAAAAAAAAAAAAAAAAAAAAAAAAAAAAAAAAAAAAAAAAAAAAAAAAAAAAAAAAAAAAAAAAAAAAAAAAAAAAAAAAAAAAAAAAAAAAAAAAAAAAAAAAAAAAAAAAAAPZYQGe3UNM6uspSimlQQ1C5JPmdlNlA0UzqAZWTh6mlOCHiSZsOvVC2jFq/VyjmGGsBlmQYbesRjwC3Lwusx57w25U=</c2pa:manifest></metadata><defs><style>@import url("https://fonts.googleapis.com/css2?family=M+PLUS+Rounded+1c:wght@800&amp;display=swap");</style><filter id="oll2" x="-5%" y="-5%" width="110%" height="110%"><feMorphology in="SourceAlpha" operator="dilate" radius="7" result="d"/><feFlood flood-color="#fff"/><feComposite in2="d" operator="in" result="w"/><feMerge><feMergeNode in="w"/><feMergeNode in="SourceGraphic"/></feMerge></filter></defs><g filter="url(#oll2)"><g stroke="#3a2c55" stroke-linecap="round"><path d="M283.2,136.1 L314.9,140.0" stroke-width="4"/><path d="M270.1,157.6 L307.9,170.5" stroke-width="2.5"/><path d="M60.9,154.4 L22.6,166.2" stroke-width="2.5"/><path d="M56.4,131.8 L16.6,135.4" stroke-width="4"/><path d="M48.8,107.9 L17.1,104.0" stroke-width="2.5"/><path d="M61.9,86.4 L24.1,73.5" stroke-width="4"/><path d="M71.6,65.6 L37.3,45.0" stroke-width="2.5"/><path d="M79.5,41.7 L56.1,19.9" stroke-width="4"/><path d="M248.9,49.7 L279.0,23.3" stroke-width="4"/><path d="M269.1,64.6 L297.0,49.0" stroke-width="2.5"/><path d="M271.1,89.6 L309.4,77.8" stroke-width="4"/><path d="M275.6,112.2 L315.4,108.6" stroke-width="2.5"/></g><g transform="translate(166,116) rotate(-4) scale(1.42)"><path d="M-26,56 C-48,44 -58,24 -62,6" fill="none" stroke="#3a2c55" stroke-width="21" stroke-linecap="round" stroke-linejoin="round"/><path d="M-26,56 C-48,44 -58,24 -62,6" fill="none" stroke="#ffe3d0" stroke-width="11" stroke-linecap="round" stroke-linejoin="round"/><circle cx="-62" cy="2" r="8" fill="#ffe3d0" stroke="#3a2c55" stroke-width="4.5"/><path d="M-62,-6 v-10" stroke="#3a2c55" stroke-width="11" stroke-linecap="round"/><path d="M-62,-6 v-10" stroke="#ffe3d0" stroke-width="5" stroke-linecap="round"/><path d="M-8,40 h16 v10 h-16z" fill="#ffe3d0" stroke="#3a2c55" stroke-width="4"/><path d="M-30,56 C-24,46 24,46 30,56 L24,84 L-24,84Z" fill="#b79cf0" stroke="#3a2c55" stroke-width="5" stroke-linejoin="round"/><path d="M-20,50 C-8,58 8,58 20,50" fill="none" stroke="#f3c24f" stroke-width="5" stroke-linecap="round"/><circle cx="0" cy="68" r="5" fill="#f3c24f" stroke="#3a2c55" stroke-width="3"/><path d="M20,-60 C48,-80 84,-66 86,-30 C88,0 74,22 84,50 C62,44 52,22 52,0 C52,-22 42,-40 22,-44Z" fill="#4d3a7d" stroke="#3a2c55" stroke-width="5" stroke-linejoin="round"/><path d="M44,-60 C66,-54 72,-30 68,-4 M58,-40 C62,-24 60,0 66,24" fill="none" stroke="#7a64b3" stroke-width="3.5" stroke-linecap="round"/><path d="M-48,-2 C-52,-46 -26,-58 0,-58 C26,-58 52,-46 48,-2 C48,10 44,18 40,22 L-40,22 C-44,18 -48,10 -48,-2Z" fill="#4d3a7d" stroke="#3a2c55" stroke-width="5" stroke-linejoin="round"/><ellipse cx="0" cy="6" rx="40" ry="38" fill="#ffe3d0" stroke="#3a2c55" stroke-width="5"/><path d="M-42,2 C-44,-36 -18,-46 0,-44 C18,-46 44,-36 42,2 C34,-12 26,-16 18,-12 C12,-22 2,-24 -4,-16 C-14,-24 -30,-16 -42,2Z" fill="#4d3a7d" stroke="#3a2c55" stroke-width="4.5" stroke-linejoin="round"/><path d="M-24,-32 q10,-6 20,-4" fill="none" stroke="#7a64b3" stroke-width="4" stroke-linecap="round"/><g transform="translate(26,-54) rotate(28)"><path d="M0,0 l-17,-10 q-4,9 0,19z M0,0 l17,-10 q4,9 0,19z" fill="#b79cf0" stroke="#3a2c55" stroke-width="3.5" stroke-linejoin="round"/><circle r="5" fill="#f3c24f" stroke="#3a2c55" stroke-width="3"/></g><polygon transform="translate(-30,-26) scale(0.55)" points="0.0,-20.0 5.3,-7.3 19.0,-6.2 8.6,2.8 11.8,16.2 0.0,9.0 -11.8,16.2 -8.6,2.8 -19.0,-6.2 -5.3,-7.3" fill="#f3c24f" stroke="#3a2c55" stroke-width="6.4" stroke-linejoin="round"/><ellipse cx="-26" cy="20" rx="8" ry="5" fill="#f7a39a" opacity=".9"/><ellipse cx="26" cy="20" rx="8" ry="5" fill="#f7a39a" opacity=".9"/><ellipse cx="-16" cy="8" rx="6.5" ry="8.5" fill="#3a2c55"/><ellipse cx="-16" cy="12" rx="4" ry="3.5" fill="#7a64b3"/><circle cx="-13.5" cy="4" r="2.8" fill="#ffffff"/><path d="M-21,0 l-5,-4" stroke="#3a2c55" stroke-width="3" stroke-linecap="round"/><path d="M8,10 q8,-10 16,0" fill="none" stroke="#3a2c55" stroke-width="4.5" stroke-linecap="round"/><path d="M-7,24 q7,11 14,0 z" fill="#3a2c55" stroke="#3a2c55" stroke-width="2.5" stroke-linejoin="round"/><path d="M-4,28 q4,-3 8,0 q-4,4 -8,0z" fill="#e2504a"/><path d="M26,58 C18,70 8,72 2,66" fill="none" stroke="#3a2c55" stroke-width="21" stroke-linecap="round" stroke-linejoin="round"/><path d="M26,58 C18,70 8,72 2,66" fill="none" stroke="#ffe3d0" stroke-width="11" stroke-linecap="round" stroke-linejoin="round"/><circle cx="2" cy="64" r="8" fill="#ffe3d0" stroke="#3a2c55" stroke-width="4.5"/><circle cx="12" cy="70" r="4" fill="#f3c24f" stroke="#3a2c55" stroke-width="2.5"/></g><circle cx="24" cy="222" r="26" fill="#efe7ff" stroke="#3a2c55" stroke-width="4.5"/><circle cx="58" cy="230" r="20" fill="#efe7ff" stroke="#3a2c55" stroke-width="4.5"/><circle cx="92" cy="222" r="26" fill="#efe7ff" stroke="#3a2c55" stroke-width="4.5"/><circle cx="126" cy="230" r="20" fill="#efe7ff" stroke="#3a2c55" stroke-width="4.5"/><circle cx="160" cy="222" r="26" fill="#efe7ff" stroke="#3a2c55" stroke-width="4.5"/><circle cx="194" cy="230" r="20" fill="#efe7ff" stroke="#3a2c55" stroke-width="4.5"/><circle cx="228" cy="222" r="26" fill="#efe7ff" stroke="#3a2c55" stroke-width="4.5"/><circle cx="262" cy="230" r="20" fill="#efe7ff" stroke="#3a2c55" stroke-width="4.5"/><circle cx="296" cy="222" r="26" fill="#efe7ff" stroke="#3a2c55" stroke-width="4.5"/><rect x="16" y="224" width="288" height="12" fill="#efe7ff"/><g transform="translate(46,200) rotate(-20) scale(0.42,0.42) translate(-110,-212)"><g transform="translate(0,0) scale(1)"><path d="M52,206 C26,196 26,230 56,224" fill="none" stroke="#3a2c55" stroke-width="17" stroke-linecap="round" stroke-linejoin="round"/><path d="M52,206 C26,196 26,230 56,224" fill="none" stroke="#f3c24f" stroke-width="7" stroke-linecap="round" stroke-linejoin="round"/><path d="M82,234 h36 l8,12 h-52z" fill="#d99b2b" stroke="#3a2c55" stroke-width="5" stroke-linejoin="round"/><path d="M50,210 C52,192 78,186 100,186 C124,186 142,194 150,204 L182,190 C190,186 194,192 188,196 L158,222 C146,234 122,238 100,238 C74,238 50,228 50,210Z" fill="#f3c24f" stroke="#3a2c55" stroke-width="5.5" stroke-linejoin="round"/><path d="M64,214 C80,226 118,228 140,216" fill="none" stroke="#d99b2b" stroke-width="5" stroke-linecap="round"/><ellipse cx="78" cy="200" rx="10" ry="4.5" fill="#ffffff" opacity=".6" transform="rotate(-12 78 200)"/><ellipse cx="100" cy="187" rx="28" ry="7" fill="#d99b2b" stroke="#3a2c55" stroke-width="4.5"/><path d="M84,186 C86,172 114,172 116,186" fill="#f3c24f" stroke="#3a2c55" stroke-width="4.5"/><circle cx="100" cy="170" r="6" fill="#f3c24f" stroke="#3a2c55" stroke-width="4"/></g></g><polygon transform="translate(270,58) scale(0.9)" points="0.0,-20.0 5.3,-7.3 19.0,-6.2 8.6,2.8 11.8,16.2 0.0,9.0 -11.8,16.2 -8.6,2.8 -19.0,-6.2 -5.3,-7.3" fill="#f3c24f" stroke="#3a2c55" stroke-width="3.9" stroke-linejoin="round"/><path transform="translate(56,70) scale(0.9)" d="M0,-12 Q2,-2 12,0 Q2,2 0,12 Q-2,2 -12,0 Q-2,-2 0,-12Z" fill="#43bfae" stroke="#3a2c55" stroke-width="2.5" stroke-linejoin="round"/><text x="160" y="292" text-anchor="middle" font-family="'M PLUS Rounded 1c', sans-serif" font-weight="800" font-size="30" fill="#3a2c55">おまかせください！</text></g></svg>